<svg xmlns="http://www.w3.org/2000/svg" viewBox="0 0 256 193" width="256" height="193">
 <defs>
  <clipPath id="clip-shape">
   <path
    d="m256,68.5V28c0-15.46-12.54-28-28-28H28C12.54,0,0,12.54,0,28v40.5c0,15.46,12.54,28,28,28-15.46,0-28,12.54-28,28v40.5c0,15.46,12.54,28,28,28h200c15.46,0,28-12.54,28-28v-40.5c0-15.46-12.54-28-28-28,15.46,0,28-12.54,28-28Z"
   />
  </clipPath>
 </defs>
 <image
  href="https://img.freepik.com/free-photo/beautiful-green-park_1417-1447.jpg?t=st=1737467994~exp=1737471594~hmac=59d793ef263ce7747f20d3ac4c2a8213b676fc84e9f3b66d7414b4f317416562&w=2000"
  width="256"
  height="193"
  clip-path="url(#clip-shape)"
 />
</svg>
