<svg xmlns="http://www.w3.org/2000/svg" viewBox="0 0 30.39 32.62">
 <defs>
  <style>
   .cls-1 {
    fill: #fddf80;
   }

   .cls-2 {
    fill: #85bb40;
   }

   .cls-3 {
    fill: #2c3076;
   }

   .cls-4 {
    fill: #cbde77;
   }

   .cls-5 {
    fill: #4259a7;
   }
  </style>
 </defs>
 <path
  class="cls-3"
  d="m0,27.56v2.25c0,1.55,6.8,2.81,15.19,2.81s15.19-1.26,15.19-2.81v-2.25H0Z"
 />
 <path
  class="cls-5"
  d="m15.19,30.38c8.39,0,15.19-1.26,15.19-2.81s-6.8-2.81-15.19-2.81S0,26.01,0,27.56s6.8,2.81,15.19,2.81Z"
 />
 <path
  class="cls-2"
  d="m3.39,26.44c0,1.86,5.29,2.81,11.81,2.81s11.81-.95,11.81-2.81V0H3.39v26.44Z"
 />
 <path
  class="cls-4"
  d="m6.9,15.36l-.27-1.09c.35-.09.74-.17,1.17-.24l.19,1.11c-.4.07-.77.15-1.08.22Z"
 />
 <path class="cls-1" d="m4.51,1.12h1.12v1.12h-1.12v-1.12Z" />
 <path
  class="cls-4"
  d="m22.61,7.91l-.19-1.11c.4-.07.77-.15,1.08-.22l.27,1.09c-.35.09-.74.17-1.17.24Z"
 />
 <path class="cls-4" d="m12.95,20.25h1.12v1.12h-1.12v-1.12Z" />
 <path class="cls-1" d="m17.45,10.12h1.12v1.12h-1.12v-1.12Z" />
 <path class="cls-1" d="m12.39,11.25h1.12v1.12h-1.12v-1.12Z" />
 <path class="cls-1" d="m14.07,1.69h1.12v1.12h-1.12v-1.12Z" />
 <path class="cls-1" d="m7.32,18.56h1.12v1.12h-1.12v-1.12Z" />
 <path class="cls-1" d="m21.95,21.38h1.12v1.12h-1.12v-1.12Z" />
 <path class="cls-1" d="m7.89,9h1.12v3.38h-1.12v-3.38Z" />
 <path
  class="cls-4"
  d="m25.89,10.12V1.12h-1.12v3.89c-.55-.22-1.31-.41-2.31-.58-1.94-.32-4.52-.5-7.25-.5-1.17,0-2.3.03-3.38.1v-1.78h-1.12v1.86c-1.01.08-1.94.19-2.75.33-1,.17-1.76.35-2.31.58v-1.64h-1.12v15.75h1.12v-2.2c.55.22,1.31.41,2.31.58,1.94.32,4.52.5,7.25.5.38,0,.75,0,1.12-.01v3.95h1.12v-3.98c1.88-.07,3.6-.23,5-.46,1-.17,1.76-.35,2.31-.58v3.33h1.12v-9h-1.12v3.33c-.55-.22-1.31-.41-2.31-.58-1.94-.32-4.52-.5-7.25-.5-2.28,0-4.44.12-6.25.36l.14,1.12c1.76-.23,3.87-.35,6.11-.35,2.45,0,4.8.15,6.62.42,1.75.26,2.49.55,2.79.71-.3.16-1.04.45-2.79.71-1.45.2-2.91.33-4.37.37v-1.08h-1.12v1.11c-.37,0-.75.01-1.12.01-2.45,0-4.8-.15-6.62-.42-2.2-.32-2.8-.7-2.94-.8V7.36c.55.22,1.31.41,2.31.58.82.14,1.75.25,2.75.33v1.3h1.12v-1.22c1.07.06,2.21.1,3.38.1,2.28,0,4.44-.12,6.25-.36l-.14-1.12c-1.76.23-3.87.35-6.11.35-1.16,0-2.3-.03-3.38-.1v-2.05c1.07-.06,2.21-.1,3.38-.1,2.45,0,4.8.15,6.62.42,2.2.32,2.8.7,2.94.8v3.84h1.12Zm-15.19-2.99c-.76-.06-1.48-.14-2.12-.24-1.75-.26-2.49-.55-2.79-.71.3-.16,1.04-.45,2.79-.71.65-.1,1.36-.18,2.12-.24v1.89Z"
 />
 <path
  class="cls-4"
  d="m24.76,24.7c-.55-.22-1.31-.41-2.31-.58-1.94-.32-4.52-.5-7.25-.5s-5.31.18-7.25.5c-1,.17-1.76.35-2.31.58v-4.45h-1.12v5.62c0,.82,1.03,1.35,3.44,1.75,1.94.32,4.52.5,7.25.5s5.31-.18,7.25-.5c2.41-.4,3.44-.92,3.44-1.75v-4.5h-1.12v3.33Zm-2.94,1.88c-1.82.27-4.18.42-6.62.42s-4.8-.15-6.62-.42c-1.75-.26-2.49-.55-2.79-.71.3-.16,1.04-.45,2.79-.71,1.82-.27,4.18-.42,6.62-.42s4.8.15,6.62.42c1.75.26,2.49.55,2.79.71-.3.16-1.04.45-2.79.71Z"
 />
 <path class="cls-1" d="m20.82,11.81h1.12v7.31h-1.12v-7.31Z" />
 <path class="cls-1" d="m18.01,1.12h1.12v5.06h-1.12V1.12Z" />
 <path class="cls-1" d="m10.14,20.81h1.12v5.06h-1.12v-5.06Z" />
</svg>
