<svg xmlns="http://www.w3.org/2000/svg" viewBox="0 0 22.71 23.01">
 <path
  fill="#fff"
  d="m21.11,2.81l-.82.72C13.75-2.86,2.79-.17.34,8.39c-.05.19.05.38.24.43.14.05.24,0,.34-.05.07-.03.1-.07.1-.1,3.17-6.59,11.83-7.26,15.67-1.92l-.87.77c-.29.24-.14.67.19.77l6.11,1.54c.29.1.62-.19.58-.48l-.82-6.25c-.05-.38-.48-.53-.77-.29Z"
 />
 <path
  fill="#a1e66a"
  d="m1.59,20.21l.82-.72c6.54,6.39,17.5,3.7,19.95-4.86.05-.19-.05-.38-.24-.43-.14-.05-.24,0-.34.05-.07.03-.1.07-.1.1-3.17,6.59-11.83,7.26-15.67,1.92l.87-.77c.29-.24.14-.67-.19-.77l-6.11-1.54c-.29-.1-.62.19-.58.48l.82,6.25c.05.38.48.53.77.29Z"
 />
</svg>
