<svg xmlns="http://www.w3.org/2000/svg" viewBox="0 0 138.65 128.84">
 <path
  d="m.28,14.84c.98-1.26,1.26-2.95,2.47-3.99.73-.83,2.16-.8,2.85.07.46.86-.04,1.92-.3,2.76-.25.63-.73.84-1.45.82-.49.63-.98,1.26-1.7,1.66-.97.83-2.85-.28-1.87-1.32ZM14.51,6.65c1.22-1.25,2.67-2.49,4.13-3.53,1.45-1.03,3.38-2.26,5.05-2.23.95.02,1.4,1.1.68,1.51-1.21,1.04-3.12,1.21-4.57,2.02-1.68.81-2.9,1.85-4.35,3.09-.72.41-1.42-.46-.93-.87h-.01Zm21.52-4.61c-1.89-.47-4.03-.73-6.17-.78-.71-.02-.69-1.08.02-1.06,2.85.07,8.59-1.08,10.43,1.52.47.44-.26,1.06-.74,1.05-1.19-.03-2.37-.48-3.55-.72h0Zm8.76,12.12c.55-3.39,1.34-6.36-.49-9.59-.23-.43.25-.63.48-.2,2.54,3.25,3.65,6.9,1.42,10.47-.5.84-1.66-.04-1.41-.67h0Zm-12.72,15.03c.75-1.69,2.21-2.93,3.43-4.39,1.47-1.67,2.93-3.13,4.63-4.58.49-.41,1.42.25.93.87-1.46,1.24-2.44,2.71-3.67,4.17-1.22,1.46-2.22,3.36-3.68,4.6-.73.62-2.15.16-1.65-.68h.01Zm-17.45,13.88c1.75-3.79,5.88-7.32,9.27-10.01.72-.41,1.42.25.93.87-1.7,1.66-3.41,3.54-4.88,5.42-1.22,1.46-2.21,3.14-3.67,4.39-.97.62-1.9-.04-1.65-.68h0Zm-9.24,18.75c-.15-3.84,1.6-7.63,3.11-11,.25-.63,1.2-.4,1.18.24-1.27,3.59-1.83,7.2-2.15,10.81-.26,1.06-2.16,1.01-2.14-.05Zm7.52,14.44c-1.4-1.1-2.8-2.62-3.95-3.92-.93-1.09.53-2.33,1.7-1.45,1.16,1.09,2.57,2.19,3.97,3.29s3.52,2.21,4.67,3.73c.46.65-.27,1.48-1.22,1.25-1.9-.04-3.77-1.58-5.17-2.89h0Zm12.75,4.33c-.95-.02-.92-1.51.03-1.49,2.38-.16,4.53-.53,6.92-.91,2.15-.38,4.31-1.39,6.69-1.34,1.19.03,1.63,1.53.43,1.93-4.09,1.82-9.8,2.12-14.08,1.81h.01Zm24.23-8.6c1.69-1.03,3.38-2.05,5.07-3.08,1.68-.81,3.38-2.26,5.29-2.43.95.02,1.17.88.92,1.51-.75,1.47-2.9,2.06-4.34,2.67-1.93,1.02-4.09,1.82-6.01,2.84-1.2.4-1.88-.89-.92-1.51h-.01Zm17.61-10.24c1.95-1.87,3.88-3.32,6.05-4.55,2.17-1.23,5.3-2.86,7.91-2.37,1.18.24,1.4,1.31.43,1.93-1.69,1.03-4.07,1.18-5.99,1.78-2.87.79-5.52,2.22-7.94,3.86-.25.42-.95-.23-.46-.65Zm23.59-11.6c1.95-1.87,4.12-3.31,6.77-4.53,2.65-1.22,6.01-2.63,8.85-2.14.95.23.92,1.51.2,1.71-2.17,1.23-5.02,1.16-7.42,1.96-2.64.79-5.29,2.22-7.7,3.87-.49.41-1.42-.25-.69-.87h0Zm36.39.62c-.92-1.51-1.6-2.81-3-3.9-1.88-1.11-4.72-1.6-6.86-1.65-.71-.02-.69-1.08.02-1.06,4.53-.32,12.36.71,11.99,6.24-.26.85-1.69,1.24-2.15.38h0Zm7.8,22.74c-.18-2.35.35-4.68.4-7.02-.17-2.99-1.06-5.77-2.91-8.16-.23-.43.49-.63.72-.41,3.7,4.56,6.89,10.81,4.15,16.28-.74,1.05-2.39.37-2.36-.69h0Zm-16.59,17.72c.99-1.47,2.44-2.71,3.67-4.39.99-1.47,1.5-3.16,1.78-4.86.26-1.06,1.93-1.02,1.9.04.15,3.84-1.39,8.7-5.48,10.73-1.21.82-2.37-.48-1.87-1.53h0Zm-14.47,8.41c3.15-2.7,6.55-5.6,10.4-7.43,1.2-.61,1.88.9.92,1.51-3.38,2.26-5.85,6.04-9.93,7.65-1.19.18-2.36-.91-1.39-1.74h0Zm-.13,15.98c-1.41-.67-2.32-2.4-3.01-3.69-.68-1.51-.88-3.21-.84-4.92.02-1.06,1.69-1.03,1.66.04-.03,1.49.41,2.78,1.1,4.07.69,1.08,1.86,1.96,2.55,3.04.69.87-.52,1.9-1.46,1.46Zm8.98,12.98c-5.4-3.11-11.54-5.16-17.19-7.85-2.59-1.34-.13-4.69,2.46-3.56,4.71,2.02,9.67,3.84,14.13,6.5.28-1.91.56-3.82.85-5.94.26-.85.29-2.34,1.26-2.95l.24-.21s0-.21.24-.21c.49-.42,1.43.03,1.42.46.23.22.23.43.22.86.21,1.07-.05,2.13-.08,3.41-.3,2.76-.6,5.31-.42,8.08.21,1.28-1.71,2.09-3.13,1.42h0Z"
 />
</svg>
