<svg xmlns="http://www.w3.org/2000/svg" viewBox="0 0 136.24 40.08">
 <path
  fill="#93e14a"
  d="m16.06,17.15h3.24V6.37c0-.78.35-1.52.97-2.07.62-.55,1.46-.86,2.33-.86s1.71.31,2.33.86c.62.55.97,1.29.97,2.07v.57l1.89-1.65c.47-.41.99-.76,1.55-1.06-.52-1.31-1.51-2.44-2.82-3.2C25.21.27,23.65-.09,22.08.02c-1.56.1-3.05.66-4.22,1.59-1.17.93-1.96,2.17-2.25,3.53l-.06.21c0,.08,0,.14-.04.22s0,.21,0,.31v7.88h-3.28l3.82,3.39h0Zm26.71.89h-13.24l-2.28,2.02,8.72,7.73v.04l.04.05.04.04.05.07v.09s.04.08.06.11v.05s.06.11.08.17v1.46s0,.12-.04.17v.12s0,.13-.06.2v.04c0,.06-.05.13-.09.19l-.05.09-.07.11s-.03.06-.05.08v.03l-.09.11s-.06.08-.1.12l-.19.19-.17.14c-.65.49-1.48.73-2.33.69-.84-.06-1.62-.38-2.21-.91l-.4-.36v2.92c0,.57-.08,1.14-.23,1.7,1.53.9,3.39,1.24,5.2.96,1.81-.29,3.42-1.18,4.5-2.49s1.55-2.94,1.31-4.56c-.24-1.61-1.18-3.08-2.61-4.1l-4.37-3.89h8.54c.34-1.1.35-2.25.04-3.36v-.02ZM5.05,12.71c.07.15.14.3.23.45l.24.39.07.1.09.12.06.08c.26.35.56.67.89.96l5.89,5.22-2.33,2.06h5.44l2.26-2.02-8.54-7.64-.12-.12-.04-.05v-.04s-.04-.04-.05-.07v-.1s-.05-.08-.07-.12v-.05c-.03-.05-.06-.1-.08-.16v-1.74l.06-.18v-.09c.02-.06.05-.12.08-.17v-.04s.03-.07.05-.1l.05-.08s.03-.06.05-.09v-.04l.07-.09.1-.12c-.07-.22-.11-.45-.1-.68l.09-.07.09-.06s.09-.07.15-.1c.63-.43,1.42-.65,2.22-.61s1.55.34,2.12.84l.47.41v-2.36c0-.57.07-1.14.23-1.7-1.13-.47-2.38-.67-3.63-.57-1.25.09-2.44.48-3.47,1.11l-.16.1c-.12.08-.24.17-.37.25l-.07.04-.36.3c-.08.06-.15.13-.22.19l-.12.17h-.09v.07l-.05.06-.15.17-.16.19-.08.1-.09.1-.07.1-.05.07-.13.17-.12.19v.04c-.03.07-.07.14-.11.2l-.12.23c0,.08-.07.15-.1.23v.07l-.07.19c-.02.06-.04.11-.05.17v.12c-.05.14-.08.28-.11.43v.34c-.21.97-.16,1.96.14,2.91l.14.33h0Zm23.7-6.99l-6.08,5.39-2.29-2.06v4.82l1.15,1.12,1.06.94,8.6-7.62.25-.19.26-.17.24-.13.18-.08h.04l.12-.04h.19l.19-.05h.78c.63,0,1.26.14,1.8.44.54.3.97.73,1.24,1.23.27.51.37,1.08.28,1.63-.09.56-.35,1.08-.76,1.51-.06.07-.13.14-.2.2l-1.48,1.31h-4.66v-3.1l-3.82,3.38v2.88h10.1l2.6-2.3c1.2-1.05,1.94-2.45,2.08-3.94.14-1.49-.32-2.98-1.31-4.2l-.32-.36-.07-.09c-.11-.12-.23-.23-.35-.34-1.14-1.02-2.65-1.66-4.26-1.81-.34-.02-.67-.02-1.01,0h-1.19l-.25.14c-.12.02-.24.05-.36.08l-.29.08-.5.17h-.05c-.18.07-.35.14-.51.22-.18.08-.36.17-.53.28h-.06l-.12.07-.16.1-.26.19c-.1.1-.19.2-.27.31h0Zm4.2,20.63l-3.82-3.38h-3.24v10.79c0,.78-.35,1.52-.97,2.07-.62.55-1.46.86-2.33.86s-1.71-.31-2.33-.86c-.62-.55-.97-1.29-.97-2.07v-.59l-1.88,1.66c-.47.41-.99.76-1.55,1.05.53,1.3,1.52,2.41,2.82,3.16,1.3.75,2.85,1.1,4.4,1s3.02-.65,4.19-1.56,1.96-2.14,2.27-3.49v-.64h0v-.19h0v-7.79h3.41v-.02Zm-16.8,8.27l.32-.24.19-.16,5.93-5.28,2.33,2.06v-4.82l-1.23-1.09-1.06-.94-3.3,2.92-5.34,4.73-.25.2-.26.17h-.04l-.25.13-.18.08h-.18l-.19.06h-.16l-.16.03h-.59c-.62-.02-1.22-.19-1.74-.5-.51-.31-.92-.74-1.17-1.24s-.34-1.06-.25-1.6.35-1.05.75-1.47l.47-.41h-2.67c-.65,0-1.29-.07-1.92-.21-.48.91-.71,1.91-.67,2.91s.35,1.98.91,2.86c.55.88,1.34,1.62,2.28,2.17.95.55,2.03.9,3.15,1h.32c.33.02.66.02.99,0h1.09l.33-.08.33-.1.25-.08h.05l.18-.07.11-.04.24-.21.09-.04.19-.08h.06l.23-.12h.04l.23-.13.12-.08.17-.1s.26-.23.26-.23Zm-9.02-8.27h8.33v2.87l3.82-3.38v-2.87H7.14c-.45.02-.89-.04-1.31-.18s-.8-.35-1.13-.62c-.32-.27-.58-.6-.76-.97-.18-.36-.27-.76-.27-1.15s.09-.79.27-1.15c.18-.36.43-.69.76-.97.32-.27.71-.49,1.13-.62.42-.14.86-.2,1.31-.18h.64l-1.86-1.67c-.46-.4-.86-.85-1.2-1.34-1.54.49-2.84,1.43-3.68,2.66-.85,1.24-1.19,2.69-.97,4.12.22,1.43.99,2.75,2.18,3.74s2.73,1.59,4.35,1.69l.54.02h0Z"
 />
 <path
  fill="#fff"
  d="m52.2,27.03v-14h8.86v2.76h-6.1v2.36h4.76v2.76h-4.76v3.36h6.1v2.76s-8.86,0-8.86,0Zm16.64-3.16l2.48,1.34c-.46.63-1.04,1.13-1.73,1.51-.69.38-1.45.57-2.27.57-.92,0-1.76-.24-2.52-.71-.75-.47-1.36-1.11-1.81-1.9-.45-.8-.67-1.68-.67-2.65,0-.73.13-1.42.39-2.05.26-.64.62-1.2,1.07-1.68.46-.49.99-.87,1.6-1.14.61-.27,1.25-.41,1.94-.41.82,0,1.58.19,2.27.57.69.38,1.27.89,1.73,1.53l-2.48,1.34c-.21-.22-.44-.39-.71-.5-.26-.12-.53-.18-.81-.18-.43,0-.81.12-1.15.35-.33.23-.6.54-.8.93-.19.38-.29.79-.29,1.24s.1.85.3,1.23c.2.38.47.69.8.92.34.23.72.35,1.14.35.29,0,.56-.06.82-.18s.49-.28.7-.48Zm8.3,3.42c-.92,0-1.76-.24-2.52-.71-.75-.47-1.36-1.11-1.81-1.9-.45-.8-.67-1.68-.67-2.65,0-.73.13-1.42.39-2.05.26-.64.62-1.2,1.07-1.68.46-.49.99-.87,1.6-1.14.61-.27,1.25-.41,1.94-.41.92,0,1.76.24,2.51.71.76.47,1.36,1.11,1.81,1.91s.68,1.69.68,2.66c0,.73-.13,1.41-.39,2.04-.26.63-.62,1.19-1.08,1.68-.45.48-.98.86-1.59,1.13-.6.27-1.25.41-1.94.41Zm0-2.76c.43,0,.81-.11,1.15-.34.34-.23.61-.54.8-.92s.29-.79.29-1.24-.1-.88-.31-1.26c-.2-.39-.47-.69-.81-.92s-.71-.34-1.12-.34-.8.12-1.14.35-.61.54-.81.92c-.19.38-.29.8-.29,1.25s.1.9.3,1.28c.21.37.48.67.82.89s.71.33,1.12.33h0Zm11.88,2.76c-.79,0-1.54-.12-2.26-.37-.71-.25-1.34-.6-1.88-1.07-.53-.47-.92-1.02-1.15-1.66l2.59-.96c.08.23.25.44.5.64.25.19.57.35.95.48.38.12.8.18,1.25.18s.84-.06,1.22-.19c.39-.13.7-.32.93-.55.24-.23.36-.51.36-.82s-.12-.57-.37-.78c-.25-.21-.56-.37-.95-.49-.39-.13-.78-.22-1.19-.29-1.01-.15-1.91-.38-2.71-.71-.79-.33-1.42-.79-1.88-1.37-.46-.59-.69-1.33-.69-2.23s.24-1.62.73-2.27c.49-.65,1.14-1.15,1.94-1.51.81-.36,1.68-.54,2.61-.54.77,0,1.52.12,2.24.37s1.35.6,1.88,1.07c.54.47.93,1.03,1.16,1.68l-2.59.94c-.08-.23-.25-.44-.5-.63-.25-.19-.57-.35-.95-.47s-.79-.18-1.24-.18-.83.06-1.22.19c-.38.13-.69.32-.94.55-.24.23-.36.5-.36.8,0,.39.11.69.34.89.23.2.54.34.92.43s.8.16,1.26.23c.95.14,1.82.39,2.62.75.8.35,1.44.83,1.92,1.42.49.59.73,1.3.73,2.15s-.24,1.62-.73,2.27c-.49.65-1.13,1.15-1.93,1.51s-1.67.54-2.61.54Zm13.04-3.42l2.48,1.34c-.46.63-1.04,1.13-1.73,1.51-.69.38-1.45.57-2.27.57-.92,0-1.76-.24-2.52-.71-.75-.47-1.36-1.11-1.81-1.9-.45-.8-.67-1.68-.67-2.65,0-.73.13-1.42.39-2.05.26-.64.62-1.2,1.07-1.68.46-.49.99-.87,1.6-1.14.61-.27,1.25-.41,1.94-.41.82,0,1.58.19,2.27.57.69.38,1.27.89,1.73,1.53l-2.48,1.34c-.21-.22-.44-.39-.71-.5-.26-.12-.53-.18-.81-.18-.43,0-.81.12-1.15.35-.33.23-.6.54-.8.93-.19.38-.29.79-.29,1.24s.1.85.3,1.23c.2.38.47.69.8.92.34.23.72.35,1.14.35.29,0,.56-.06.82-.18s.49-.28.7-.48Zm4.29,3.16v-10h2.75v.74c.34-.32.73-.57,1.18-.75s.93-.27,1.43-.27c.37,0,.73.05,1.1.16l-1.09,2.79c-.24-.1-.48-.15-.73-.15-.35,0-.66.08-.95.25-.29.17-.51.39-.68.68-.17.28-.25.6-.25.95v5.6s-2.76,0-2.76,0Zm14.42-10h2.76v10h-2.77l-.13-1.04c-.26.39-.59.7-1,.94s-.88.36-1.43.36c-.75,0-1.44-.14-2.09-.42-.65-.28-1.22-.67-1.71-1.16s-.88-1.06-1.16-1.71c-.27-.65-.41-1.35-.41-2.1s.13-1.38.39-2,.63-1.17,1.1-1.64,1.02-.84,1.63-1.11c.62-.27,1.29-.4,2-.4.61,0,1.16.13,1.65.39s.92.59,1.29.99c0,0-.12-1.1-.12-1.1Zm-2.64,7.61c.45,0,.86-.12,1.23-.35s.66-.55.87-.94c.21-.4.32-.84.32-1.32s-.11-.93-.32-1.32-.5-.71-.87-.94c-.37-.23-.78-.35-1.23-.35s-.88.12-1.25.35-.67.55-.89.95c-.22.39-.33.83-.33,1.31s.11.92.33,1.32c.23.39.53.71.9.94.37.23.79.35,1.24.35Zm10.17,7.39h-2.76v-15h2.76v1.08c.32-.39.7-.71,1.14-.96s.95-.38,1.54-.38c.73,0,1.41.14,2.04.41.64.27,1.2.65,1.68,1.14.48.48.86,1.04,1.13,1.67s.41,1.31.41,2.04-.14,1.41-.41,2.05-.65,1.2-1.13,1.69c-.48.48-1.04.86-1.68,1.13-.63.27-1.31.41-2.04.41-.59,0-1.1-.13-1.54-.38s-.82-.57-1.14-.96v6.06Zm2.64-12.61c-.45,0-.86.12-1.23.36-.36.23-.65.55-.86.94-.21.39-.31.83-.31,1.31s.1.92.31,1.32c.21.39.5.71.86.94.37.23.78.35,1.23.35s.87-.12,1.24-.35c.38-.23.68-.55.9-.94.23-.39.34-.83.34-1.32s-.11-.91-.33-1.3c-.22-.4-.52-.72-.9-.95-.37-.24-.79-.36-1.25-.36Z"
 />
</svg>
