<?xml version="1.0" encoding="UTF-8"?>
<svg
 id="Layer_1"
 data-name="Layer 1"
 xmlns="http://www.w3.org/2000/svg"
 xmlns:xlink="http://www.w3.org/1999/xlink"
 viewBox="0 0 408 432"
>
 <defs>
  <style>
   .cls-1 {
    fill: url(#linear-gradient);
    fill-opacity: 0.13;
   }
  </style>
  <linearGradient
   id="linear-gradient"
   x1="8.07"
   y1="37.1"
   x2="402.62"
   y2="458.52"
   gradientTransform="translate(0 469.89) scale(1 -1)"
   gradientUnits="userSpaceOnUse"
  >
   <stop offset="0" stop-color="#c8cacc" />
   <stop offset=".14" stop-color="#78cf34" />
   <stop offset=".38" stop-color="#78cf34" />
   <stop offset=".57" stop-color="#4ea50a" />
   <stop offset=".75" stop-color="#98bc55" />
   <stop offset=".93" stop-color="#539e17" />
   <stop offset=".98" stop-color="#2cc429" />
  </linearGradient>
 </defs>
 <path
  class="cls-1"
  d="m211.8,394.74v-22.35l-15.61-12.17v23.93l-14.54,11.34v-23.51l-15.34,11.96-14.81-11.54v-21.94c.45-.16.78-.71.78-1.37,0-.13-.02-.25-.04-.37l14.19-11.07.13-.1v-24.35l-15.34,11.96-15.07-11.76-15.07,11.75-14.81-11.55v-23.09l15.34-11.96-15.34-11.96v-23.93l-15.47,12.07-.13.1v23.09l-13.79-10.76c.02-.12.04-.24.04-.37,0-.66-.33-1.21-.78-1.37v-45.45l14.94-11.65.13-.1v-24.35l-15.48,12.07-.13.1v23.51l-14.81,11.55-14.54-11.34,14.67-11.44.13-.1v-24.35l-15.47,12.07-.13.1v46.61l-13.79-10.76c.02-.12.04-.24.04-.37,0-.66-.33-1.21-.78-1.37v-22.36l-14.78-11.54,14.54-11.34.27.21v-.42l.27-.21-.27-.21v-23.51l-14.33-11.17c.02-.12.04-.24.04-.37,0-.78-.47-1.42-1.05-1.42s-1.05.64-1.05,1.42c0,.66.33,1.21.78,1.37v21.94l-15.35,11.96,15.07,11.75L.4,207.71l-.13.1v23.51l-.27.21.27.21v23.51l14.79,11.54-14.68,11.45-.13.1v24.35l15.47-12.07.13-.1v-23.1h.01s0-23.93,0-23.93l14.06-10.96c.13.17.29.3.48.37v22.36l14.81,11.54-14.67,11.44-.13.1v23.52l-14.04,10.96c-.19-.26-.46-.42-.74-.42-.58,0-1.05.64-1.05,1.42,0,.66.33,1.21.78,1.37v45.42l-14.96,11.67-.13.1v24.35l.02-.02v23.12l15.07,11.75v.42l.27-.21.27.21v-.42l14.94-11.65.13-.1v-24.35l-14.6,11.39c-.19-.26-.46-.42-.74-.42s-.56.16-.74.42l-13.8-10.77,14.28-11.14v.02l15.34-11.96,15.34,11.96v-23.94l14.92-11.64.13-.1v-22.36c.45-.16.78-.71.78-1.37,0-.78-.47-1.42-1.05-1.42s-1.05.64-1.05,1.42c0,.13.02.25.04.37l-14.19,11.07-.13.1v23.09l-14.52-11.33v-46.61l14.79-11.54,15.34,11.96v-23.93l14.06-10.96c.13.17.29.3.48.37v22.35l14.33,11.17c-.02.12-.04.24-.04.37s.02.25.04.37l-14.19,11.07-.13.1v47l-13.97,10.9c-.19-.36-.5-.6-.86-.6-.58,0-1.05.64-1.05,1.42,0,.66.33,1.21.78,1.37v23.04l15.07-11.75v23.09l15.61,12.17v-24.35l-14.79-11.54,14.54-11.35,14.06,10.96c-.02.12-.04.24-.04.37,0,.78.47,1.42,1.05,1.42s1.05-.64,1.05-1.42c0-.66-.33-1.21-.78-1.37v-45.44l14.81-11.55,14.54,11.34-14.67,11.44-.13.1v23.51l-.27.21.27.21v23.09l-14.94,11.65-.13.1v24.35l15.48-12.07.13-.1v-23.09l14.54,11.34v.42l.27-.21,15.34,11.96v-22.77c.18-.06.35-.19.48-.37l14.05,10.97v23.93l15.07-11.75h0s15.47-12.06,15.47-12.06l.13-.1v-23.09l13.79,10.76c-.02.12-.04.24-.04.37,0,.78.47,1.42,1.05,1.42s1.05-.64,1.05-1.42c0-.67-.34-1.21-.79-1.38ZM46.02,196.47l14.54-11.34v22.67l-14.54,11.34v-22.67Zm-30.69,93.63l-14.53,11.34v-22.67l14.54-11.34v22.67h0Zm15.09,106.63v22.67l-14.53,11.34v-21.52c.45-.16.78-.71.78-1.37,0-.13-.02-.25-.04-.37l13.79-10.76Zm-15.07,12.5v21.52l-14.54-11.34v-22.67l13.79,10.76c-.02.12-.04.24-.04.37,0,.66.34,1.21.79,1.37Zm165.77-13.33l-14.53,11.33v-22.67l14.54-11.34v22.68h0Zm-30.14-1.16c-.18.07-.35.19-.48.37l-13.79-10.75,14.27-11.13v21.52h0Zm-14.54-34.11v-22.67l13.79,10.76c-.02.11-.04.24-.04.37,0,.66.33,1.21.78,1.37v21.52l-14.53-11.34Zm14.54-12.91c-.18.07-.35.2-.48.37l-13.79-10.75,14.27-11.13v21.52h0Zm-14.81,13.54l14.54,11.34-6.6,5.15-7.93,6.19-14.54-11.34,6.6-5.15,7.93-6.19Zm.27,23.72l13.79,10.76c-.02.12-.04.24-.04.37s.02.25.04.37l-13.79,10.76v-22.26Zm29.61-47.87l-14.06,10.96c-.13-.17-.29-.3-.48-.37v-21.94l14.53-11.33v22.67Zm-74.82-36.42v-21.52l14.54,11.34v22.67l-13.8-10.76c.02-.11.04-.24.04-.37,0-.66-.33-1.21-.78-1.37Zm0,2.74c.18-.07.35-.2.48-.37l13.79,10.75-14.26,11.13v-21.52Zm14.8-13.54l-14.54-11.34,7.13-5.56,7.41-5.77,14.54,11.34-14.54,11.33Zm-14.8-34.64l14.54-11.34v22.67l-14.54,11.34v-22.67Zm-15.07-58.78l14.54-11.34v22.67l-14.54,11.34v-22.67Zm-.54,46.61l-4.76,3.71-9.78,7.63v-22.67l14.54-11.34v22.67Zm-15.07,34.85l-7.27-5.67-7.27-5.67v-22.67l7.27,5.67,7.27,5.67v22.67Zm-14.53-57.53l14.54,11.34v22.67l-7.27-5.67-7.27-5.67v-22.68Zm-15.61,9.76c-.18.06-.35.19-.48.37l-14.06-10.96v-22.67l14.54,11.34v21.93h0Zm0-68.96v22.67l-14.54-11.34v-21.94c.18-.07.35-.19.48-.37l14.06,10.97Zm-14.8,11.97l14.54,11.34-14.27,11.13-.27.21-.27-.21-14.27-11.14,14.54-11.33ZM.8,208.23l14.54-11.34v22.67l-14.54,11.34v-22.67Zm0,23.93l14.54,11.34v22.67l-14.54-11.34v-22.67Zm14.81,10.71l-14.54-11.34,6.6-5.15,7.93-6.19,14.06,10.96c-.02.12-.04.24-.04.37s.02.25.04.37l-14.06,10.98Zm15.34-9.97c.18-.06.35-.19.48-.37l14.06,10.96v22.67l-14.54-11.34v-21.93h0Zm0,45.86l14.54-11.34v22.67l-14.54,11.34v-22.67Zm-15.06,36.43c.45-.16.78-.71.78-1.37,0-.13-.02-.25-.04-.37l13.79-10.76v22.67l-14.54,11.34v-21.52h0Zm14.53,33.69l-14.54,11.34v-22.67l14.54-11.34v22.67Zm-15.09,35.26l-14.53,11.34v-22.67l14.54-11.34v22.67h0Zm.56-23.09l14.54-11.34v22.67l-14.54,11.34v-22.67Zm30.13-23.51l14.06-10.96c.13.17.29.3.48.37v21.94l-14.54,11.34v-22.68h0Zm-.52,23.92v22.27l-14.54-11.34v-22.67l14.52,11.33v.43h.02Zm15.06-60.03l-14.54-11.34v-22.67l7.27,5.67,7.27,5.67v22.68Zm.54-23.51v-22.67l8.31-6.48,6.23-4.86v21.52c-.45.16-.78.71-.78,1.37,0,.13.02.25.04.37l-13.8,10.75Zm15.07,12.17v-21.94c.18-.07.35-.19.48-.37l14.06,10.96v21.94c-.18.07-.35.19-.48.37l-14.06-10.96Zm0,23.93l14.06-10.96c.13.17.29.3.48.37v21.94l-.27.21-14.27,11.13v-22.68h0Zm0,47.02l14.54-11.34v22.67l-14.54,11.34v-22.67Zm14.54-12.17l-14.54,11.34v-22.67l14.54-11.34v22.67Zm-29.63,46.6v-21.78c.45-.16.78-.71.78-1.37,0-.04,0-.09-.01-.13l13.76-10.73v22.67l-14.53,11.33Zm29.61,23.51l-14.54-11.34v-22.67l14.54,11.34v22.67Zm15.09-36c-.18.07-.35.19-.48.37l-14.06-10.96v-22.67l14.54,11.34v21.93h0Zm-14.53-34.11v-22.67l14.54,11.34v22.67l-14.54-11.34Zm14.8-11.96l-14.54-11.34,14.53-11.34.27.21,14.27,11.13-14.53,11.34Zm30.14-22.68l14.54,11.34-14.27,11.13-.27.21-.27-.21-14.27-11.13,14.54-11.34Zm-14.8,35.06l14.54-11.34v22.67l-14.54,11.34v-22.67Zm-.54,70.11l-14.54,11.34v-22.67l14.54-11.34v22.67Zm.54-23.51v-22.67l14.54,11.34v22.67l-14.54-11.34Zm15.34,11.96l13.79-10.75c.13.17.29.3.48.37v21.52l-14.26-11.13Zm14.81-13.13v-21.52l14.54,11.34v22.67l-13.79-10.76c.02-.12.04-.24.04-.37,0-.66-.34-1.2-.79-1.37Zm15.07,36v-22.67l14.54-11.34v22.67l-14.54,11.33Zm29.61-23.09l-14.54,11.34v-22.67l14.54-11.34v22.67Zm.54-23.51v-22.67l14.54,11.34v21.93c-.18.07-.35.19-.48.37l-14.06-10.97Zm211.27-136.65l-15.07-11.75,14.67-11.44.13-.1v-23.52l.27-.21-.27-.21v-23.51l-14.79-11.54,14.68-11.45.13-.1v-24.35l-15.47,12.07-.13.1v23.1h-.01s0,23.92,0,23.92l-14.06,10.96c-.13-.17-.29-.3-.48-.37v-45.86l-15.07-11.75v-23.51l-14.33-11.17c.03-.12.04-.25.04-.38s-.02-.25-.04-.37l14.19-11.07.13-.1v-23.09l14.52,11.33v47.44l14.59-11.38c.19.26.46.42.74.42.58,0,1.05-.64,1.05-1.42,0-.66-.33-1.21-.78-1.37v-45.42l14.96-11.67.13-.1v-24.35l-15.1,11.77v-.02l-15.34,11.96-15.34-11.96v23.94l-14.92,11.64-.13.1v22.36c-.45.16-.78.71-.78,1.37s.33,1.21.78,1.37v22.36l15.07,11.75v23.09l-14.54,11.34v-23.09l-15.07-11.75v-.42l-.27.21-.27-.21v.42l-14.94,11.65-.13.1v24.35l14.59-11.38c.19.26.46.42.75.42s.56-.16.74-.42l14.06,10.96v47.45l15.34-11.96,14.8,11.54,14.81,11.55-14.54,11.34-.27-.21v.42l-.27.21.27.21v23.51l15.07,11.75v21.93c-.45.16-.78.71-.78,1.37,0,.78.47,1.42,1.05,1.42s1.05-.64,1.05-1.42c0-.13-.02-.25-.04-.37l14.19-11.07.13-.1v-24.35l-15.07,11.75v-22.67l15.35-11.99Zm-15.33-105.6l14.54-11.34v22.67l-14.54,11.34v-22.67Zm14.52,81.87l-14.54,11.34v-22.67l14.54-11.34v22.67Zm0-23.93l-14.54-11.34v-22.67l14.54,11.34v22.67Zm-14.8-10.71l14.54,11.34-6.6,5.15-7.93,6.19-14.06-10.96c.02-.12.04-.24.04-.37s-.02-.25-.04-.37l14.06-10.98Zm-15.34-11.96v21.93c-.18.07-.35.2-.48.37l-6.79-5.3-7.27-5.67v-22.67l7.27,5.67,7.26,5.67Zm.52-94.05l14.54-11.34v22.67l-14.54,11.35v-22.68Zm0,46.19v-22.67l14.54-11.34v21.52c-.45.16-.78.71-.78,1.37,0,.13.02.25.04.37l-13.8,10.76Zm15.1-81.45l14.54-11.34v22.67l-14.54,11.34v-22.67Zm-.56,23.09l-14.54,11.34v-22.67l14.54-11.34v22.67Zm-29.61-22.67l14.54,11.34v22.67l-14.52-11.33v-.43h-.01s0-22.26,0-22.26h0Zm-.52,23.51v22.67l-14.06,10.96c-.13-.17-.3-.3-.48-.37v-21.94l14.53-11.33Zm-14.54,57.94v-21.94c.18-.07.35-.19.48-.37l14.06,10.96v22.67l-14.54-11.33Zm29.6,23.93v22.67l-7.27-5.67-7.27-5.67v-22.67l14.54,11.33Zm-59.75,22.67v-22.67l14.54-11.34v21.52c-.45.16-.78.71-.78,1.37,0,.13.02.25.04.37l-13.8,10.76Zm15.07-12.5v-21.52l14.54,11.34v22.67l-13.79-10.75c.02-.12.04-.24.04-.37,0-.67-.34-1.22-.79-1.38Zm15.07,13.34l14.54-11.34v22.67l-14.54,11.34v-22.67Zm0,23.51l14.54-11.34v22.67l-14.54,11.34v-22.67Zm15.07,11.34v-22.67l7.27,5.67,6.52,5.09c-.02.12-.04.24-.04.37,0,.66.33,1.21.78,1.37v21.51l-14.53-11.33Zm15.07-10.18c.18-.07.35-.19.48-.37l14.05,10.96v22.67l-14.54-11.34v-21.93h0Zm14.54,34.53l.27-.21.27.21,14.27,11.13-14.54,11.34-14.54-11.34,14.27-11.13Zm-14.54,11.75l14.54,11.34v22.67l-14.54-11.34v-22.67Zm29.61,23.51v22.67l-14.06,10.96c-.13-.17-.29-.3-.48-.37v-21.93l14.53-11.33Zm-89.11-141.69c0-.13-.02-.25-.04-.37l14.19-11.07.13-.1v-47l13.98-10.9c.19.36.5.6.86.6.58,0,1.05-.64,1.05-1.42,0-.66-.33-1.21-.78-1.37v-23.04l-15.07,11.75v-23.09l-15.61-12.17v24.35l14.79,11.54-14.54,11.35-14.06-10.96c.02-.12.04-.24.04-.37,0-.78-.47-1.42-1.05-1.42s-1.05.64-1.05,1.42c0,.66.33,1.21.78,1.37v45.45l-14.81,11.55-14.54-11.34,14.67-11.44.13-.1v-23.53l.27-.21-.27-.21v-23.09l14.94-11.65.13-.1V0l-15.47,12.07-.13.1v23.09l-14.54-11.34v-.42l-.27.21-15.34-11.96v22.77c-.18.07-.35.2-.48.37l-14.06-10.96V0l-15.07,11.75h0s-15.48,12.06-15.48,12.06l-.13.1v23.09l-14.54-11.34v-.42l-.27.21-.27-.21v.42l-14.81,11.54-15.34-11.96v23.94l-14.54,11.34v-23.1l-15.61-12.17-15.07-11.75v23.93l-14.04,10.96c-.19-.26-.46-.42-.74-.42-.58,0-1.05.64-1.05,1.42s.47,1.42,1.05,1.42c.29,0,.56-.16.74-.42l14.06,10.96v23.93l15.48-12.07.13-.1v-23.09l14.54,11.34v23.93l14.59-11.38c.13.17.29.3.48.37v22.36l15.61,12.17v-23.51l15.07,11.75v-24.35l-14.81-11.54,14.53-11.33,15.34,11.96v-23.93l14.54-11.34v46.19l-14.94,11.65-.13.1v24.35l14.59-11.38c.19.26.46.42.75.42.58,0,1.05-.64,1.05-1.42,0-.66-.33-1.21-.78-1.37v-21.94l14.94-11.65.13-.1v-23.09l14.54,11.34v21.94c-.45.16-.78.71-.78,1.37,0,.13.02.25.04.37l-14.19,11.07-.13.1v24.35l15.34-11.96,15.07,11.75,15.07-11.75,15.07,11.75,14.81-11.55v21.52c-.45.16-.78.71-.78,1.37,0,.78.47,1.42,1.05,1.42.56,0,1.03-.63,1.03-1.41Zm13.75-11.96l-14.06,10.96c-.13-.17-.29-.3-.48-.37v-21.94l.27-.21,14.27-11.13v22.68h0Zm-29.61-46.19l14.54,11.34v22.67l-14.54-11.34v-22.67Zm15.07,11.33l14.54-11.34v22.67l-14.54,11.34v-22.67Zm14.53-12.17l-14.54,11.34v-22.67l14.54-11.34v22.67Zm15.1-34.43v21.78c-.45.16-.78.71-.78,1.37,0,.04,0,.09,0,.13l-13.76,10.73v-22.67l14.53-11.34Zm-29.61-23.51l14.54,11.34v22.67l-14.54-11.34V13.01Zm-15.09,36.01c.18-.07.35-.19.48-.37l14.06,10.96v22.67l-14.54-11.34v-21.93h0Zm-30.41,21.72l-14.54-11.34,6.6-5.15,7.93-6.19,14.54,11.34-6.6,5.15-7.93,6.19Zm-14.81-33.48c.18-.07.35-.19.48-.37l13.79,10.75-14.27,11.13v-21.52h0Zm14.54,9.76l-13.79-10.76c.02-.12.04-.24.04-.37s-.02-.25-.04-.37l13.79-10.76v22.26Zm0,24.35v22.67l-13.79-10.76c.02-.12.04-.24.04-.37,0-.66-.33-1.21-.78-1.37v-21.52l14.53,11.34Zm-14.54,12.92c.18-.07.35-.2.48-.37l13.79,10.75-14.27,11.13v-21.52h0Zm29.61-1.58l-14.54,11.34v-22.67l14.54-11.34v22.67Zm.54-70.11l14.54-11.34v22.67l-14.54,11.34V12.59Zm-.54,23.51v22.67l-14.54-11.34v-22.67l14.54,11.34Zm-15.34-11.97l-13.79,10.75c-.13-.17-.29-.3-.48-.37V13l14.26,11.13ZM241.42,1.26v22.67l-14.54,11.34V12.6l14.54-11.34Zm-45.21,35.26v22.67l-14.54,11.34v-22.67l14.54-11.34Zm-29.61,0l14.54,11.34v22.67l-7.27-5.67-7.27-5.67v-22.68Zm14.53,57.53l-7.27-5.67-6.52-5.09c.02-.12.04-.24.04-.37,0-.66-.33-1.21-.78-1.37v-21.52l7.27,5.67,7.27,5.67v22.68h0Zm-30.14-23.51l-14.54-11.34v-22.67l14.54,11.34v22.67Zm-29.61-45.77l14.54,11.34v22.67l-14.54-11.34v-22.67Zm-14.33,34.27l14.06-10.96,14.54,11.34-6.6,5.15-7.93,6.19-14.06-10.97c.02-.12.04-.24.04-.37s-.02-.25-.04-.38Zm28.87,23.67l-14.54,11.34v-22.67l14.54-11.34v22.67Zm15.6,11.34v-22.67l14.54-11.34v21.52c-.45.16-.78.71-.78,1.37,0,.13.02.25.04.37l-13.8,10.76Zm29.61,23.51l-14.54-11.34v-21.94c.18-.07.35-.19.48-.37l6.79,5.3,7.27,5.67v22.68h0Zm15.07-11.75l-14.54-11.34v-22.67l14.54,11.34v22.67Zm15.07-35.27l-14.54-11.33v-22.68l14.54,11.34v22.67Zm.53-23.51v-22.68l14.54-11.34v22.67l-14.54,11.35Zm29.61-22.25v22.67l-14.54,11.34v-22.67l14.54-11.33Zm-29.61,92.79v-22.67l14.54-11.34v21.52c-.45.16-.78.71-.78,1.37,0,.13.02.25.04.37l-13.8,10.76Zm29.61-46.61l-14.54,11.34v-22.67l14.54-11.34v22.67Zm.54-46.19l13.79,10.75c-.02.12-.04.24-.04.37,0,.66.33,1.21.78,1.37v21.52l-14.53-11.33v-22.67Zm0,70.12l14.06-10.96c.13.17.29.3.48.37v21.94l-14.54,11.34v-22.68h0Zm29.87,22.88l-14.54-11.34,14.27-11.13.27-.21.27.21,14.27,11.13-14.54,11.34Zm15.61-11.34l14.54-11.34,14.54,11.34-14.54,11.34-14.54-11.34Z"
 />
</svg>
