<svg
  display="none"
  aria-hidden="true"
  style="position: absolute; width: 0; height: 0; overflow: hidden"
  version="1.1"
  xmlns="http://www.w3.org/2000/svg"
  xmlns:xlink="http://www.w3.org/1999/xlink"
>
  <symbol fill="currentColor" id="shape-1" viewBox="0 0 256 193">
    <path
      d="m256,68.5V28c0-15.46-12.54-28-28-28H28C12.54,0,0,12.54,0,28v40.5c0,15.46,12.54,28,28,28-15.46,0-28,12.54-28,28v40.5c0,15.46,12.54,28,28,28h200c15.46,0,28-12.54,28-28v-40.5c0-15.46-12.54-28-28-28,15.46,0,28-12.54,28-28Z"
    />
  </symbol>
  <symbol fill="currentColor" id="shape-2" viewBox="0 0 220 318">
    <path
      d="m220,107v-55c0-28.72-23.28-52-52-52H52C23.28,0,0,23.28,0,52v55c0,28.72,23.28,52,52,52-28.72,0-52,23.28-52,52v55c0,28.72,23.28,52,52,52h116c28.72,0,52-23.28,52-52v-55c0-28.72-23.28-52-52-52,28.72,0,52-23.28,52-52Z"
    />
  </symbol>
  <symbol fill="currentColor" id="shape-3-old" viewBox="0 0 460 589">
    <path
      d="m186,28c0-15.46,12.54-28,28-28h218c15.46,0,28,12.54,28,28v515.02c0,15.46-12.54,28-28,28h-151.71c-15.74,0-29.6,12.74-44.77,16.96-2.39.66-4.92,1.02-7.52,1.02H28c-15.46,0-28-12.54-28-28V88.91c0-15.46,12.54-28,28-28h125.09c18.17,0,32.91-14.73,32.91-32.91h0Z"
    />
  </symbol>
  <symbol fill="currentColor" id="shape-3" viewBox="0 0 461 590">
    <path
      d="m186,28.05c0-15.49,12.54-28.05,28-28.05h219c15.46,0,28,12.56,28,28.05v513.89c0,15.49-12.54,28.05-28,28.05h-152.71c-15.74,0-29.6,14.76-44.77,18.99-2.39.66-4.92,1.02-7.52,1.02H28c-15.46,0-28-14.56-28-30.05V89.06c0-15.49,12.54-28.05,28-28.05h125.09c18.17,0,32.91-14.76,32.91-32.97h0Z"
    />
  </symbol>
  <symbol fill="currentColor" id="shape-4" viewBox="0 0 185 244">
    <path
      d="m185,70v-18c0-28.72-23.28-52-52-52H52C23.28,0,0,23.28,0,52v18c0,28.72,23.28,52,52,52-28.72,0-52,23.28-52,52v18c0,28.72,23.28,52,52,52h81c28.72,0,52-23.28,52-52v-18c0-28.72-23.28-52-52-52,28.72,0,52-23.28,52-52Z"
    />
  </symbol>
  <symbol fill="currentColor" id="shape-5" viewBox="0 0 460.01 304.01">
    <path
      fill-rule="evenodd"
      d="m460,16v126.74c0,.68-.04,1.35-.12,2.01v120.5c0,15.46-12.54,28-28,28h-157.28c-11.85,0-23.07,10.76-34.92,10.76H16c-8.84,0-16-7.16-16-16V43.8C0,28.33,12.54,15.8,28,15.8h117.03c13.82,0,27.11-15.8,40.93-15.8h258.05c8.84,0,16,7.16,16,16h0Z"
    />
  </symbol>
  <symbol fill="currentColor" id="shape-6" viewBox="0 0 288.01 491.79">
    <path
      d="m272.84,491.78h-120.07c-.64,0-1.28-.04-1.9-.11H36.72c-14.65,0-26.53-11.88-26.53-26.53v-182c0-11.23-10.19-21.86-10.19-33.08V15.16C0,6.78,6.78,0,15.16,0h231.35c14.66,0,26.53,11.88,26.53,26.53v133.87c0,13.09,14.97,25.68,14.97,38.77v277.46c0,8.37-6.78,15.16-15.16,15.16h-.01Z"
    />
  </symbol>
</svg>
