<svg
  display="none"
  aria-hidden="true"
  style="position: absolute; width: 0; height: 0; overflow: hidden"
  version="1.1"
  xmlns="http://www.w3.org/2000/svg"
  xmlns:xlink="http://www.w3.org/1999/xlink"
>
  <symbol fill="currentColor" id="arrow-down" viewBox="0 0 12.06 6.23">
    <path
      d="m6.03,6.23c-.53,0-1.06-.2-1.46-.6L.22,1.28C-.07.99-.07.51.22.22.51-.07.99-.07,1.28.22l4.35,4.35c.22.22.58.22.81,0L10.78.22c.29-.29.77-.29,1.06,0s.29.77,0,1.06l-4.35,4.35c-.4.4-.93.6-1.46.6Z"
    />
  </symbol>
  <symbol fill="currentColor" id="arrow-long-next" viewBox="0 0 75 14.72">
    <path
      d="m74.71,8.06c.39-.39.39-1.02,0-1.41l-6.36-6.36c-.39-.39-1.02-.39-1.41,0-.39.39-.39,1.02,0,1.41l5.66,5.66-5.66,5.66c-.39.39-.39,1.02,0,1.41.39.39,1.02.39,1.41,0l6.36-6.36h0ZM0,8.35h74v-2H0v2Z"
    />
  </symbol>
  <symbol
    fill="currentColor"
    id="arrow-small-top-right"
    viewBox="0 0 6.51 5.17"
  >
    <path
      d="m6.4,1.14c-.11-.18-.28-.32-.49-.37L3.15.03c-.42-.11-.87.14-.98.57-.11.43.14.87.57.98l.9.24L.4,3.68c-.38.22-.51.71-.29,1.09.15.26.42.4.69.4.14,0,.27-.03.4-.11l3.23-1.87-.24.9c-.11.43.14.87.57.98.07.02.14.03.21.03.35,0,.68-.24.77-.59l.74-2.76c.06-.2.03-.42-.08-.61Z"
    />
  </symbol>
  <symbol fill="currentColor" id="arrow-top-right" viewBox="0 0 15.1 11.43">
    <path
      d="m14.99,2.44c-.11-.18-.28-.32-.49-.37L6.9.03c-.43-.11-.86.14-.98.57-.11.43.14.87.57.98l5.74,1.54L.4,9.94c-.38.22-.51.71-.29,1.09.15.26.42.4.69.4.14,0,.27-.03.4-.11l11.82-6.83-1.54,5.74c-.11.43.14.87.57.98.07.02.14.03.21.03.35,0,.68-.24.77-.59l2.04-7.6c.06-.21.03-.42-.08-.61Z"
    />
  </symbol>
  <symbol fill="currentColor" id="deco-1" viewBox="0 0 23.76 23.7">
    <path
      d="m23.3,11.22l-3.41-.97c-1.53-.43-2.93-1.25-4.06-2.38-1.13-1.13-1.95-2.53-2.38-4.06l-.97-3.41c-.05-.12-.13-.22-.24-.29-.11-.07-.23-.11-.36-.11s-.25.04-.36.11c-.11.07-.19.17-.24.29l-.97,3.41c-.43,1.53-1.25,2.93-2.38,4.06s-2.53,1.95-4.06,2.38l-3.41.97c-.13.04-.25.12-.33.22-.08.11-.13.24-.13.38s.04.27.13.38c.08.11.2.19.33.22l3.41.97c1.53.43,2.93,1.25,4.06,2.38s1.95,2.53,2.38,4.06l.97,3.41c.04.13.12.25.22.33.11.08.24.13.38.13s.27-.04.38-.13c.11-.08.19-.2.22-.33l.97-3.41c.43-1.53,1.25-2.93,2.38-4.06,1.13-1.13,2.53-1.95,4.06-2.38l3.41-.97c.13-.04.25-.12.33-.22.08-.11.13-.24.13-.38s-.04-.27-.13-.38c-.08-.11-.2-.19-.33-.22Z"
    />
  </symbol>
  <symbol fill="currentColor" id="deco-6" viewBox="0 0 71.98 71.29">
    <path
      d="m70.89,45.16l-8.43-14.6c-.22-.39-.72-.52-1.11-.3h0l-12.16,7.02c-.39.22-.52.72-.3,1.1h0l6.37,11.03h-10.21v-5.36c0-.45-.36-.81-.81-.81-.23,0-.44.1-.6.26l-12.09,13.22c-.28.31-.28.78,0,1.09l12.09,13.22c.3.33.81.35,1.14.05.17-.15.26-.37.26-.6v-5.4h13.01c3.79,0,7.3-2.03,9.2-5.31l3.62-6.26c1.49-2.59,1.49-5.77,0-8.36h.02Zm-9.43-13.08l6.29,10.89c2.93,5.27-6.7,6.19-10.62,6.45l-6.42-11.12,10.76-6.21h-.01Zm8.03,20.63h0l-3.62,6.26c-1.61,2.78-4.58,4.5-7.8,4.5h-13.82c-.45,0-.81.36-.81.81v4.12l-10.18-11.13,10.18-11.13v4.09c0,.45.36.81.81.81,5.54-.38,22.13,1.8,25.41-4.75,1.03,2.03.97,4.45-.17,6.42Zm-9.07-38.76c-.26-.21-.62-.24-.91-.07l-4.68,2.7-6.51-11.27c-1.89-3.28-5.4-5.31-9.19-5.31h-7.23c-2.99,0-5.75,1.59-7.24,4.18l-8.43,14.6c-.22.39-.09.88.3,1.11l12.16,7.02c.39.22.88.09,1.11-.3l6.37-11.03,5.1,8.84-4.64,2.68c-.39.23-.51.73-.28,1.12.11.19.3.32.51.37.36.04,17.29,3.86,17.66,3.88.35,0,.66-.23.77-.57l5.4-17.07c.1-.32,0-.67-.26-.88h-.01Zm-31.63,11.15l-10.76-6.21,6.29-10.89c3.06-5.18,8.74,2.72,10.9,5.98l-6.42,11.12h-.01Zm25.17,5.61l-14.73-3.25,3.54-2.04c.38-.23.52-.72.3-1.11-3.08-4.58-9.53-20.09-16.82-19.63,1.24-1.91,3.37-3.06,5.65-3.06h7.23c3.22,0,6.19,1.72,7.8,4.5l6.91,11.97c.22.39.72.52,1.11.3l3.57-2.06-4.55,14.38h-.01Zm-24.01,19.15c0-.45-.36-.81-.81-.81h-12.74l5.1-8.84,4.64,2.68c.39.22.88.09,1.11-.3.11-.2.14-.43.07-.65l-5.4-17.07c-.13-.4-.54-.64-.95-.55l-17.49,3.86c-.44.1-.71.53-.62.96.05.22.19.41.39.53l4.68,2.7-6.51,11.27c-1.89,3.29-1.89,7.34,0,10.62l3.61,6.26c1.49,2.58,4.25,4.18,7.23,4.18h16.87c.45,0,.81-.36.81-.81v-14.04h.01Zm-18.31,12.81c.09.15.18.29.28.43-2.28-.12-4.34-1.39-5.48-3.36l-3.61-6.26c-1.61-2.79-1.61-6.22,0-9l6.91-11.97c.22-.39.09-.88-.3-1.11h0l-3.57-2.06,14.73-3.25,4.55,14.38-3.54-2.04c-.39-.22-.88-.09-1.11.3h0c-2.56,5.2-12.03,17.41-8.87,23.96v-.02Zm4.13.44c-6.03-.1-2.01-8.9-.27-12.43h12.84v12.42h-12.57,0Z"
    />
  </symbol>
  <symbol fill="currentColor" id="deco-7" viewBox="0 0 41.89 42">
    <path
      d="m20.9,42c3.62,0,7.17-.93,10.32-2.71,3.15-1.78,5.79-4.34,7.66-7.44s2.91-6.62,3.01-10.24c.11-3.62-.73-7.2-2.41-10.4-.09-.17-.25-.3-.44-.36-.19-.06-.39-.04-.57.06-.17.09-.31.25-.36.44-.06.19-.04.39.05.57,1.48,2.8,2.25,5.92,2.24,9.08-1.07,25.87-37.93,25.87-39,0C1.22,6.54,17.3-3.15,29.98,3.75c.18.09.38.11.57.05s.35-.19.44-.37.11-.38.05-.57c-.06-.19-.19-.35-.37-.44-3-1.59-6.36-2.42-9.77-2.42-27.86,1.15-27.86,40.85,0,42Zm0-27c.65,0,1.29.11,1.91.32.19.06.39.05.57-.03.18-.09.32-.24.38-.43.33-1.33-2.01-1.27-2.86-1.35-9.95.41-9.95,14.59,0,15,1.99,0,3.89-.79,5.3-2.2,1.41-1.41,2.2-3.31,2.2-5.3-.08-.87-.03-3.18-1.35-2.85-.09.03-.18.08-.25.15s-.13.14-.18.23c-.04.09-.07.18-.07.28s0,.2.04.29c.21.61.31,1.25.31,1.9-.3,7.95-11.7,7.95-12,0,0-1.59.63-3.12,1.76-4.24,1.12-1.12,2.65-1.76,4.24-1.76h0Zm7.18-5.46c.05-.09.08-.18.09-.28.01-.1,0-.2-.02-.29-.03-.09-.07-.18-.13-.26s-.14-.14-.22-.19c-2.11-1.17-4.48-1.78-6.89-1.78-18.9.78-18.9,27.72,0,28.5,2.48,0,4.92-.64,7.07-1.87s3.95-3,5.21-5.13c1.26-2.14,1.94-4.56,1.97-7.04.03-2.48-.58-4.92-1.78-7.09-.05-.09-.11-.16-.19-.22-.08-.06-.17-.11-.26-.13-.09-.03-.19-.04-.29-.02-.1.01-.19.04-.28.09s-.16.11-.22.19-.11.17-.13.26c-.03.1-.03.19-.02.29s.04.19.09.28c4.75,8.24-1.63,19.08-11.16,18.91-3.38,0-6.62-1.35-9.01-3.74-2.39-2.39-3.73-5.63-3.74-9.01-.16-9.52,10.67-15.91,18.91-11.16.09.05.18.08.28.09s.2,0,.29-.02c.09-.03.18-.07.26-.13s.14-.14.19-.22l-.02-.03Zm1.46-2.13l.28,3.6-9.45,9.45c-.14.14-.21.33-.21.53s.08.38.22.52c.14.14.33.22.52.22.2,0,.39-.07.53-.21l9.45-9.45,3.6.28c.11,0,.22,0,.32-.04s.19-.1.27-.17l5.46-5.46c.1-.1.17-.23.2-.37.03-.14.02-.28-.03-.42s-.14-.25-.25-.34-.25-.14-.39-.15l-3.3-.25-.25-3.3c0-.14-.07-.28-.15-.39-.09-.11-.2-.2-.34-.25-.13-.05-.28-.06-.42-.03s-.27.1-.37.2l-5.46,5.46c-.08.08-.14.17-.17.27-.04.1-.05.21-.04.32l-.02-.02Zm5.58-3.83c.3,3.49-.29,2.88,3.18,3.18l-4.06,4.06-2.96-.23-.23-2.96,4.06-4.06h0Z"
    />
  </symbol>
  <symbol fill="currentColor" id="global" viewBox="0 0 14.84 14.84">
    <path
      d="m7.42,0C3.33,0,0,3.33,0,7.42s3.33,7.42,7.42,7.42,7.42-3.33,7.42-7.42S11.51,0,7.42,0Zm5.76,8.71c-.7.23-1.42.41-2.14.55.11-1.23.11-2.46,0-3.69.72.15,1.44.32,2.14.55h0c.09.41.15.84.15,1.29s-.05.87-.15,1.29h0Zm-11.53,0c-.09-.42-.15-.85-.15-1.29s.05-.87.15-1.29h0c.7-.23,1.42-.41,2.14-.55-.11,1.23-.11,2.46,0,3.69-.72-.15-1.44-.32-2.14-.55h0Zm3.68-3.38c1.39-.16,2.79-.16,4.17,0,.16,1.39.16,2.79,0,4.17-1.39.16-2.79.16-4.17,0-.16-1.39-.16-2.79,0-4.17Zm7.15-.97c-.54-.14-1.09-.27-1.65-.36-.1-.55-.22-1.1-.36-1.65.82.5,1.51,1.19,2.01,2.01Zm-3.77-2.72h0c.23.7.41,1.42.55,2.14-1.23-.11-2.46-.11-3.69,0,.15-.72.32-1.44.55-2.14h0c.42-.09.85-.15,1.29-.15s.87.05,1.29.15h.01Zm-4.34.71c-.14.54-.26,1.09-.36,1.64-.55.1-1.1.22-1.65.36.5-.82,1.18-1.51,2-2h.01Zm-2,8.11c.54.14,1.09.26,1.64.36.1.55.21,1.1.36,1.64-.82-.5-1.5-1.18-2-2Zm3.77,2.71h0c-.23-.7-.41-1.42-.55-2.14.61.06,1.23.1,1.84.1s1.23-.04,1.84-.1c-.15.72-.32,1.44-.55,2.14h0c-.42.09-.85.15-1.29.15s-.87-.05-1.29-.15Zm4.34-.71c.14-.54.27-1.09.36-1.65.55-.1,1.1-.21,1.64-.36-.5.82-1.19,1.51-2.01,2h.01Z"
    />
  </symbol>
  <symbol fill="currentColor" id="magnifying" viewBox="0 0 21.5 21.5">
    <path
      d="m10.25,20.5C4.6,20.5,0,15.9,0,10.25S4.6,0,10.25,0s10.25,4.6,10.25,10.25-4.6,10.25-10.25,10.25Zm0-19C5.43,1.5,1.5,5.43,1.5,10.25s3.93,8.75,8.75,8.75,8.75-3.92,8.75-8.75S15.08,1.5,10.25,1.5Z"
    />
    <path
      d="m20.75,21.5c-.19,0-.38-.07-.53-.22l-2-2c-.29-.29-.29-.77,0-1.06s.77-.29,1.06,0l2,2c.29.29.29.77,0,1.06-.15.15-.34.22-.53.22Z"
    />
  </symbol>
  <symbol fill="currentColor" id="soc-fb" viewBox="0 0 6.89 12.8">
    <path
      d="m1.92,7.23H.34c-.26,0-.34-.1-.34-.34v-1.94c0-.26.1-.34.34-.34h1.58v-1.41c0-.64.11-1.25.43-1.81.34-.58.82-.96,1.42-1.18.4-.14.8-.21,1.23-.21h1.57c.22,0,.32.1.32.32v1.82c0,.22-.1.32-.32.32-.43,0-.86,0-1.3.02-.43,0-.66.21-.66.66-.02.48,0,.94,0,1.44h1.86c.26,0,.35.1.35.35v1.94c0,.26-.08.34-.35.34h-1.86v5.22c0,.27-.08.37-.37.37h-2c-.24,0-.34-.1-.34-.34v-5.23h.02Z"
    />
  </symbol>
  <symbol fill="currentColor" id="soc-in" viewBox="0 0 12.82 12.81">
    <path
      d="m12.8,12.8v-4.69c0-2.3-.5-4.06-3.18-4.06-1.3,0-2.16.7-2.51,1.38h-.03v-1.17h-2.54v8.54h2.66v-4.24c0-1.12.21-2.19,1.58-2.19s1.38,1.26,1.38,2.26v4.16h2.66v.02h-.02,0ZM.21,4.26h2.66v8.54H.21V4.26ZM1.54,0C.69,0,0,.69,0,1.54s.69,1.55,1.54,1.55,1.54-.7,1.54-1.55-.69-1.54-1.54-1.54Z"
    />
  </symbol>
  <symbol fill="currentColor" id="soc-tw" viewBox="0 0 12.8 10.4">
    <path
      d="m12.78,1.23c-.48.21-.98.35-1.5.42.54-.32.96-.83,1.15-1.46-.51.3-1.07.51-1.66.64-.48-.51-1.17-.83-1.92-.83-1.46,0-2.62,1.18-2.62,2.62,0,.21.02.4.06.59-2.18-.1-4.1-1.15-5.39-2.74-.93,1.66.11,3.04.8,3.5-.42,0-.83-.13-1.18-.32,0,1.3.91,2.37,2.1,2.61-.26.08-.83.13-1.18.05.34,1.04,1.31,1.81,2.45,1.82-.9.7-2.21,1.26-3.89,1.09,1.17.75,2.54,1.18,4.03,1.18,4.83,0,7.46-4,7.46-7.46,0-.11,0-.22-.02-.34.54-.4.99-.86,1.33-1.39,0,0-.02.02-.02.02Z"
    />
  </symbol>
  <symbol fill="currentColor" id="star" viewBox="0 0 22.48 21.49">
    <path
      d="m10.29.69c.3-.92,1.6-.92,1.9,0l1.97,6.06c.13.41.52.69.95.69h6.37c.97,0,1.37,1.24.59,1.81l-5.15,3.74c-.35.25-.5.71-.36,1.12l1.97,6.06c.3.92-.76,1.69-1.54,1.12l-5.15-3.74c-.35-.25-.83-.25-1.18,0l-5.15,3.74c-.78.57-1.84-.2-1.54-1.12l1.97-6.06c.13-.41-.01-.86-.36-1.12L.41,9.25c-.78-.57-.38-1.81.59-1.81h6.37c.43,0,.82-.28.95-.69,0,0,1.97-6.06,1.97-6.06Z"
    />
  </symbol>
  <symbol fill="currentColor" id="sun" viewBox="0 0 31.19 32.01">
    <path
      d="m22.21,5.89l.32-4.31-3.15,2.93.79,2.01s2.04-.63,2.04-.63Zm-5.28,18.32c4.53-.73,7.61-5.01,6.88-9.54-.74-4.53-5.01-7.61-9.54-6.88-4.53.74-7.61,5.01-6.88,9.54.74,4.53,5.01,7.61,9.54,6.88ZM11.03,6.52l.79-2-3.16-2.93.32,4.3s2.05.63,2.05.63Zm6.96-.42L15.6,0l-2.4,6.1c.77-.19,1.57-.29,2.4-.29s1.63.1,2.4.29h-.01Zm13.2,13.46l-5.41-3.69v.13c0,1.63-.39,3.17-1.07,4.54l6.48-.98Zm-6.37-7.86l3.28-5.68-6.27,1.93c1.27.99,2.3,2.27,2.99,3.75Zm1.03,1.96l1.77,1.2,3.57-2.44-4.25-.64-1.08,1.87h-.01Zm-11.83,14.34l1.58,4.02,1.57-4.01-1.58-1.47-1.57,1.46Zm-5.37,2.43l4.8-4.46c-1.61-.35-3.08-1.07-4.32-2.08l-.49,6.54h0Zm9.08-4.46l4.8,4.46-.49-6.54c-1.23,1.01-2.7,1.74-4.32,2.08h.01Zm6.09-3.4l.16,2.13,4.13,1.27-2.15-3.73-2.13.32h-.01ZM9.36,7.96l-6.27-1.93,3.28,5.68c.69-1.47,1.72-2.76,2.99-3.75Zm-4.02,5.7l-1.07-1.86L0,12.44l3.56,2.43,1.78-1.21h0Zm-2.24,12.32l4.12-1.27.16-2.15-2.12-.32-2.15,3.74h0Zm2.32-9.98v-.13l-5.42,3.69,6.48.98c-.68-1.37-1.07-2.91-1.07-4.54h0Z"
    />
  </symbol>
</svg>
