<?xml version="1.0" encoding="UTF-8"?>
<svg id="Layer_1" data-name="Layer 1" xmlns="http://www.w3.org/2000/svg" viewBox="0 0 290.43 270.72">
  <defs>
    <style>
      .cls-1 {
        fill: #93e14a;
      }
    </style>
  </defs>
  <path class="cls-1" d="m108.41,115.87h21.88V43.07c0-5.24,2.35-10.26,6.53-13.97,4.18-3.7,9.85-5.79,15.77-5.79s11.59,2.08,15.77,5.79c4.18,3.7,6.53,8.73,6.53,13.97v3.86l12.75-11.16c3.16-2.75,6.69-5.15,10.49-7.16-3.48-8.87-10.18-16.46-19.04-21.62C170.23,1.84,159.7-.58,149.13.12c-10.57.69-20.58,4.46-28.49,10.71-7.9,6.25-13.26,14.64-15.23,23.87l-.42,1.44c0,.51,0,.98-.26,1.49-.26.51,0,1.39,0,2.09-.03.12-.03.25,0,.37v52.85h-22.14l25.81,22.92h0Zm180.49,6.01h-89.46l-15.43,13.67,58.92,52.2v.28l.26.33.26.28.37.46v.28c-.02.11-.02.22,0,.32.11.26.25.51.42.74v.33c.2.36.37.74.52,1.12v1.39c.02.23.02.47,0,.7v.37c.02.39.02.77,0,1.16.02.14.02.28,0,.42v.33c.05.8.05,1.61,0,2.42.05.8.05,1.61,0,2.42v.6c0,.09,0,.79-.26,1.12.03.19.03.37,0,.56v.28c0,.28,0,.88-.42,1.35.02.09.02.19,0,.28,0,.42-.37.88-.58,1.3l-.31.6-.47.74c-.1.2-.23.38-.37.56v.23l-.58.74c-.2.28-.43.55-.68.79l-1.31,1.25-1.15.93c-4.38,3.28-10.02,4.95-15.74,4.65-5.64-.37-10.94-2.55-14.9-6.14l-2.73-2.46v19.76c-.02,3.87-.54,7.72-1.57,11.48,10.33,6.08,22.91,8.39,35.11,6.45,12.21-1.93,23.1-7.96,30.41-16.83s10.49-19.9,8.86-30.79-7.94-20.8-17.61-27.67l-29.54-26.31h57.71c2.31-7.41,2.4-15.23.26-22.68h.01ZM34.07,85.88c.47,1.02.94,2.05,1.52,3.07.52.88,1.05,1.77,1.63,2.65l.47.7.58.79.42.56c1.74,2.35,3.77,4.54,6.03,6.51l39.77,35.28-15.74,13.94h36.73l15.27-13.67-57.71-51.59-.84-.79-.26-.32v-.28c-.14-.14-.26-.3-.37-.46v-.7c-.18-.27-.34-.55-.47-.84v-.32c-.2-.35-.37-.7-.52-1.07v-3.49c.03-.19.03-.37,0-.56.02-.12.02-.25,0-.37-.05-.77-.05-1.55,0-2.32-.05-.79-.05-1.58,0-2.37.02-.11.02-.22,0-.33v-1.91c.02-.12.02-.25,0-.37l.42-1.21v-.6c.15-.4.33-.78.52-1.16v-.28c.1-.24.22-.47.37-.7l.31-.56c.09-.22.21-.42.37-.6v-.28l.47-.6.68-.79c-.5-1.49-.73-3.05-.68-4.6l.58-.46.58-.42c.3-.27.63-.51,1-.7,4.27-2.93,9.6-4.39,15-4.09,5.39.29,10.49,2.31,14.33,5.68l3.2,2.79v-15.94c0-3.87.51-7.72,1.52-11.48-7.65-3.17-16.11-4.5-24.52-3.86s-16.49,3.22-23.43,7.49l-1.05.65c-.84.51-1.63,1.12-2.47,1.72l-.47.28-2.41,2c-.52.41-1.01.84-1.47,1.3l-.79,1.12h-.58v.46l-.37.37-1,1.12-1.1,1.3-.52.7-.58.7-.47.65-.31.46-.89,1.12-.84,1.3v.28c-.21.46-.46.91-.73,1.35l-.79,1.53c0,.51-.47,1.02-.68,1.53v.46l-.47,1.26c-.15.38-.27.77-.37,1.16-.02.28-.02.56,0,.84-.31.98-.52,1.91-.73,2.88v.46c.03.37.03.74,0,1.12.02.22.02.43,0,.65-1.4,6.53-1.08,13.26.94,19.66l.94,2.23-.02-.03Zm160.13-47.13l-41.08,36.4-15.48-13.94v32.54l7.77,7.58,7.19,6.37,58.08-51.46,1.68-1.3,1.78-1.12,1.63-.88,1.21-.51h.26l.79-.28h1.26l1.26-.33h5.3c4.29-.06,8.5.97,12.14,2.98s6.54,4.91,8.37,8.34c1.82,3.44,2.49,7.27,1.91,11.03s-2.37,7.3-5.16,10.18c-.43.47-.88.92-1.36,1.35l-10.02,8.83h-31.48v-20.96l-25.81,22.87v19.43h68.21l17.58-15.57c8.12-7.11,13.11-16.56,14.07-26.64.96-10.08-2.17-20.13-8.83-28.35l-2.15-2.42-.47-.6c-.73-.8-1.52-1.56-2.36-2.28-7.72-6.87-17.87-11.19-28.75-12.22-2.27-.14-4.55-.14-6.82,0h-8.03l-1.68.93c-.82.14-1.62.32-2.41.56l-1.94.51-3.36,1.12h-.31c-1.21.46-2.36.98-3.46,1.49-1.23.56-2.42,1.18-3.57,1.86h-.42l-.79.46-1.1.7-1.78,1.26c-.66.66-1.28,1.36-1.84,2.09l-.03-.02Zm28.39,139.45l-25.81-22.87h-21.88v72.88c0,5.24-2.35,10.26-6.53,13.97-4.18,3.7-9.85,5.79-15.77,5.79s-11.59-2.08-15.77-5.79c-4.18-3.71-6.53-8.73-6.53-13.97v-4l-12.7,11.2c-3.15,2.75-6.68,5.14-10.49,7.11,3.56,8.76,10.26,16.25,19.07,21.32,8.82,5.07,19.26,7.45,29.75,6.76,10.48-.69,20.42-4.39,28.3-10.56,7.88-6.16,13.26-14.44,15.33-23.57.02-.29.02-.59,0-.88v-2.05c.03-.2.03-.4,0-.6.03-.26.03-.53,0-.79v.02-1.31h0c.03-.25.03-.5,0-.75v-51.92h23.03Zm-113.49,55.88l2.15-1.63,1.26-1.07,40.09-35.7,15.74,13.94v-32.54l-8.29-7.39-7.19-6.37-22.3,19.71-36.05,31.93-1.68,1.35-1.78,1.16h-.26l-1.68.88-1.21.51h-1.21l-1.26.42h-1.05l-1.05.23h-3.99c-4.19-.12-8.25-1.28-11.73-3.35s-6.22-4.97-7.93-8.36c-1.7-3.39-2.29-7.14-1.7-10.81s2.34-7.13,5.04-9.96l3.2-2.79h-18.05c-4.37,0-8.72-.48-12.96-1.39-3.26,6.13-4.83,12.87-4.55,19.65.27,6.78,2.37,13.4,6.12,19.31s9.04,10.95,15.43,14.68c6.39,3.73,13.7,6.06,21.31,6.78h2.15c2.22.14,4.45.14,6.66,0h7.35l2.26-.51,2.26-.65,1.68-.56h.31l1.21-.46.74-.28,1.63-1.44.58-.28,1.26-.56h.42l1.57-.79h.26l1.57-.88.79-.51,1.15-.7,1.73-1.58h0Zm-60.91-55.86h56.3v19.38l25.81-22.87v-19.38H48.18c-3.02.13-6.03-.28-8.86-1.22-2.83-.93-5.42-2.37-7.6-4.21s-3.93-4.06-5.12-6.52c-1.19-2.46-1.8-5.11-1.8-7.78s.61-5.32,1.8-7.78,2.93-4.68,5.12-6.52,4.77-3.28,7.6-4.21c2.83-.93,5.84-1.35,8.86-1.22h4.35l-12.59-11.3c-3.09-2.73-5.8-5.77-8.08-9.06-10.38,3.29-19.16,9.64-24.88,17.98-5.72,8.35-8.03,18.18-6.54,27.85s6.68,18.6,14.72,25.29c8.03,6.68,18.41,10.72,29.41,11.43l3.62.14h0Z"/>
</svg>