<svg xmlns="http://www.w3.org/2000/svg" viewBox="0 0 300 300">
 <path
  fill="#93e14a"
  d="m114.05,131.72h21.51V60.14c0-5.15,2.31-10.09,6.42-13.74,4.11-3.64,9.69-5.69,15.51-5.69s11.39,2.05,15.51,5.69c4.11,3.64,6.42,8.58,6.42,13.74v3.79l12.54-10.97c3.11-2.7,6.57-5.07,10.32-7.04-3.43-8.72-10.01-16.19-18.72-21.26-8.71-5.07-19.07-7.44-29.46-6.76-10.39.68-20.24,4.39-28.01,10.53-7.77,6.15-13.04,14.4-14.98,23.47l-.41,1.42c0,.5,0,.96-.26,1.46-.26.5,0,1.37,0,2.06-.03.12-.03.24,0,.37v51.97h-21.77l25.38,22.53Zm177.48,5.9h-87.97l-15.17,13.44,57.94,51.33v.27l.26.32.26.27.36.46v.27c-.02.11-.02.21,0,.32.11.26.24.5.41.73,0,.11,0,.21,0,.32.19.36.37.72.52,1.1v1.37c.02.23.02.46,0,.69v.37c.02.38.02.76,0,1.14.02.14.02.28,0,.41v.32c.05.79.05,1.59,0,2.38.05.79.05,1.59,0,2.38v.59c0,.09,0,.78-.26,1.1.03.18.03.37,0,.55v.27c0,.27,0,.87-.41,1.33.02.09.02.18,0,.27,0,.41-.36.87-.57,1.28l-.31.59-.46.73c-.1.19-.22.38-.36.55v.23l-.57.73c-.19.28-.42.54-.67.78l-1.29,1.23-1.13.91c-4.31,3.23-9.85,4.86-15.48,4.57-5.55-.37-10.76-2.51-14.65-6.03l-2.68-2.42v19.43c-.02,3.8-.54,7.59-1.55,11.29,10.16,5.97,22.53,8.25,34.53,6.35,12-1.9,22.72-7.83,29.91-16.55,7.19-8.72,10.31-19.57,8.71-30.27-1.6-10.71-7.81-20.46-17.32-27.21l-29.05-25.87h56.75c2.27-7.29,2.36-14.98.26-22.31ZM40.94,102.24c.46,1.01.93,2.01,1.5,3.02.52.87,1.03,1.74,1.6,2.6l.46.69.57.78.41.55c1.71,2.31,3.7,4.46,5.93,6.4l39.11,34.69-15.48,13.71h36.12l15.01-13.44-56.75-50.74-.83-.78-.26-.32v-.27c-.14-.14-.26-.29-.36-.46v-.69c-.18-.27-.33-.54-.46-.82v-.32c-.19-.34-.37-.69-.52-1.05v-3.43c.02-.18.02-.37,0-.55.02-.12.02-.24,0-.37-.05-.76-.05-1.52,0-2.29-.05-.78-.05-1.55,0-2.33.02-.11.02-.21,0-.32v-1.87c.02-.12.02-.24,0-.37l.41-1.19v-.59c.15-.39.32-.77.52-1.14v-.27c.1-.24.22-.47.36-.69l.31-.55c.09-.21.21-.41.36-.59v-.27l.46-.59.67-.78c-.49-1.47-.71-3-.67-4.53l.57-.46.57-.41c.29-.27.62-.5.98-.69,4.2-2.88,9.44-4.31,14.75-4.03,5.3.29,10.31,2.27,14.09,5.58l3.15,2.74v-15.68c0-3.8.5-7.59,1.5-11.29-7.53-3.11-15.84-4.42-24.12-3.8-8.27.63-16.22,3.16-23.04,7.36l-1.03.64c-.83.5-1.6,1.1-2.42,1.69l-.46.27-2.37,1.97c-.51.4-.99.83-1.44,1.28l-.77,1.1h-.57v.46l-.36.37-.98,1.1-1.08,1.28-.52.69-.57.69-.46.64-.31.46-.88,1.1-.83,1.28v.27c-.21.45-.45.9-.72,1.33l-.77,1.51c0,.5-.46,1.01-.67,1.51v.46l-.46,1.23c-.14.37-.26.76-.36,1.14-.02.27-.02.55,0,.82-.31.96-.52,1.87-.72,2.83v.46c.02.37.02.73,0,1.1.02.21.02.43,0,.64-1.38,6.42-1.06,13.04.93,19.33l.93,2.19Zm157.47-46.35l-40.4,35.79-15.22-13.71v32l7.64,7.45,7.07,6.26,57.12-50.6,1.65-1.28,1.75-1.1,1.6-.87,1.19-.5h.26l.77-.27h1.24l1.24-.32h5.21c4.22-.06,8.36.95,11.94,2.93,3.58,1.98,6.44,4.82,8.23,8.2,1.79,3.38,2.45,7.15,1.88,10.85-.57,3.7-2.33,7.18-5.07,10.01-.42.46-.87.91-1.34,1.33l-9.85,8.68h-30.96v-20.61l-25.38,22.49v19.11h67.07l17.28-15.31c7.99-6.99,12.89-16.28,13.84-26.19.95-9.91-2.13-19.8-8.68-27.88l-2.12-2.38-.46-.59c-.72-.79-1.49-1.54-2.32-2.24-7.59-6.76-17.57-11-28.27-12.02-2.23-.14-4.47-.14-6.71,0h-7.89l-1.65.91c-.8.13-1.6.32-2.37.55l-1.91.5-3.3,1.1h-.31c-1.19.46-2.32.96-3.41,1.46-1.21.55-2.38,1.16-3.51,1.83h-.41l-.77.46-1.08.69-1.75,1.23c-.65.65-1.25,1.34-1.81,2.06Zm27.91,137.12l-25.38-22.49h-21.51v71.67c0,5.15-2.31,10.09-6.42,13.74-4.11,3.64-9.69,5.69-15.51,5.69s-11.39-2.05-15.51-5.69c-4.11-3.64-6.42-8.58-6.42-13.74v-3.93l-12.49,11.02c-3.1,2.7-6.57,5.05-10.32,6.99,3.5,8.62,10.08,15.98,18.75,20.97,8.67,4.99,18.94,7.32,29.25,6.65,10.31-.67,20.08-4.32,27.83-10.38,7.75-6.06,13.04-14.2,15.08-23.18.02-.29.02-.58,0-.87v-2.01c.03-.2.03-.4,0-.59.03-.26.03-.52,0-.78v.02q0-.64,0-1.29h0c.03-.25.03-.49,0-.74v-51.06h22.65Zm-111.6,54.94l2.12-1.6,1.24-1.05,39.42-35.1,15.48,13.71v-32l-8.15-7.27-7.07-6.26-21.93,19.38-35.45,31.4-1.65,1.33-1.75,1.14h-.26l-1.65.87-1.19.5h-1.19l-1.24.41h-1.03l-1.03.23h-3.92c-4.12-.12-8.12-1.26-11.53-3.3-3.42-2.04-6.12-4.89-7.79-8.22-1.67-3.33-2.26-7.02-1.67-10.63.58-3.61,2.3-7.01,4.96-9.8l3.15-2.74h-17.75c-4.29-.01-8.57-.47-12.74-1.37-3.21,6.03-4.75,12.66-4.48,19.32.27,6.66,2.33,13.18,6.02,18.99,3.69,5.82,8.89,10.77,15.17,14.44,6.28,3.67,13.47,5.96,20.95,6.67h2.12c2.18.14,4.37.14,6.55,0h7.22l2.22-.5,2.22-.64,1.65-.55h.31l1.19-.46.72-.27,1.6-1.42.57-.27,1.24-.55h.41l1.55-.78h.26l1.55-.87.77-.5,1.14-.69,1.7-1.55Zm-59.9-54.94h55.36v19.06l25.38-22.49v-19.06H54.82c-2.97.13-5.93-.28-8.71-1.2-2.78-.92-5.33-2.33-7.48-4.14s-3.86-4-5.03-6.41c-1.17-2.42-1.77-5.02-1.77-7.65s.6-5.23,1.77-7.65,2.88-4.6,5.03-6.41,4.69-3.22,7.48-4.14c2.78-.92,5.75-1.32,8.71-1.2h4.28l-12.38-11.11c-3.04-2.68-5.71-5.67-7.95-8.91-10.2,3.23-18.84,9.48-24.47,17.68-5.63,8.21-7.9,17.88-6.43,27.39,1.46,9.51,6.57,18.29,14.47,24.86,7.9,6.57,18.11,10.54,28.92,11.24l3.56.14Z"
 />
</svg>
