<svg xmlns="http://www.w3.org/2000/svg" viewBox="0 0 300 300">
 <path
  fill="#93e14a"
  d="m115.03,131.47h20.79V62.31c0-4.98,2.23-9.75,6.21-13.27,3.97-3.52,9.36-5.5,14.98-5.5s11.01,1.98,14.98,5.5c3.97,3.52,6.21,8.29,6.21,13.27v3.67l12.11-10.6c3-2.61,6.35-4.89,9.97-6.8-3.31-8.42-9.67-15.64-18.09-20.54-8.42-4.89-18.42-7.19-28.46-6.53-10.04.66-19.55,4.24-27.06,10.18-7.51,5.94-12.6,13.91-14.47,22.68l-.4,1.37c0,.49,0,.93-.25,1.41-.25.49,0,1.32,0,1.99-.02.12-.02.24,0,.35v50.21h-21.04l24.53,21.77Zm171.48,5.7h-84.99l-14.66,12.98,55.98,49.59v.26l.25.31.25.27.35.44v.27c-.02.1-.02.21,0,.31.1.25.24.49.4.71,0,.1,0,.21,0,.31.19.34.35.7.5,1.06v1.32c.02.22.02.44,0,.66v.35c.02.37.02.74,0,1.1.02.13.02.27,0,.4v.31c.05.76.05,1.53,0,2.3.05.76.05,1.53,0,2.3v.57c0,.09,0,.75-.25,1.06.02.18.02.35,0,.53v.27c0,.27,0,.84-.4,1.28.02.09.02.18,0,.27,0,.4-.35.84-.55,1.24l-.3.57-.45.71c-.1.19-.21.36-.35.53v.22l-.55.71c-.19.27-.4.52-.65.75l-1.25,1.19-1.1.88c-4.16,3.12-9.52,4.7-14.95,4.42-5.36-.35-10.39-2.43-14.16-5.83l-2.59-2.34v18.77c-.02,3.68-.52,7.34-1.5,10.91,9.82,5.77,21.76,7.97,33.36,6.13,11.6-1.84,21.95-7.57,28.9-15.99,6.95-8.43,9.96-18.9,8.41-29.25-1.55-10.35-7.54-19.76-16.73-26.29l-28.07-25h54.83c2.19-7.04,2.28-14.47.25-21.55ZM44.39,102.98c.45.97.9,1.94,1.45,2.91.5.84,1,1.68,1.55,2.52l.45.66.55.75.4.53c1.66,2.24,3.58,4.31,5.73,6.18l37.79,33.52-14.95,13.25h34.89l14.51-12.98-54.83-49.02-.8-.75-.25-.31v-.27c-.13-.14-.25-.28-.35-.44v-.66c-.17-.26-.32-.52-.45-.8v-.31c-.19-.33-.35-.67-.5-1.02v-3.31c.02-.18.02-.35,0-.53.02-.12.02-.24,0-.35-.05-.73-.05-1.47,0-2.21-.05-.75-.05-1.5,0-2.25.02-.1.02-.21,0-.31v-1.81c.02-.12.02-.24,0-.35l.4-1.15v-.57c.14-.38.31-.74.5-1.1v-.26c.1-.23.21-.45.35-.66l.3-.53c.09-.2.2-.4.35-.57v-.26l.45-.57.65-.75c-.47-1.42-.69-2.89-.65-4.37l.55-.44.55-.4c.28-.26.6-.48.95-.66,4.06-2.78,9.13-4.17,14.25-3.89,5.13.28,9.96,2.19,13.61,5.39l3.04,2.65v-15.15c0-3.67.48-7.34,1.45-10.91-7.27-3.01-15.31-4.27-23.3-3.67-7.99.6-15.67,3.06-22.26,7.11l-1,.62c-.8.49-1.55,1.06-2.34,1.63l-.45.26-2.29,1.9c-.49.39-.96.8-1.4,1.24l-.75,1.06h-.55v.44l-.35.35-.95,1.06-1.05,1.24-.5.66-.55.66-.45.62-.3.44-.85,1.06-.8,1.24v.26c-.2.44-.44.87-.7,1.28l-.75,1.46c0,.49-.45.97-.65,1.46v.44l-.45,1.19c-.14.36-.26.73-.35,1.1-.02.26-.02.53,0,.79-.3.93-.5,1.81-.7,2.74v.44c.02.35.02.71,0,1.06.02.21.02.41,0,.62-1.33,6.2-1.02,12.6.9,18.68l.9,2.12Zm152.14-44.78l-39.03,34.58-14.71-13.25v30.91l7.38,7.2,6.83,6.05,55.18-48.89,1.6-1.24,1.7-1.06,1.55-.84,1.15-.49h.25l.75-.26h1.2l1.2-.31h5.04c4.07-.06,8.08.92,11.54,2.83,3.46,1.91,6.22,4.66,7.95,7.93,1.73,3.27,2.36,6.91,1.82,10.48-.55,3.58-2.25,6.94-4.9,9.67-.41.45-.84.87-1.3,1.28l-9.52,8.39h-29.91v-19.92l-24.53,21.73v18.46h64.8l16.7-14.79c7.72-6.76,12.46-15.73,13.37-25.31.91-9.58-2.06-19.13-8.39-26.94l-2.04-2.3-.45-.57c-.69-.76-1.44-1.49-2.24-2.16-7.33-6.53-16.98-10.63-27.32-11.61-2.16-.13-4.32-.13-6.48,0h-7.63l-1.6.88c-.78.13-1.54.31-2.29.53l-1.84.49-3.19,1.06h-.3c-1.15.44-2.24.93-3.29,1.41-1.17.53-2.3,1.12-3.39,1.77h-.4l-.75.44-1.05.66-1.69,1.19c-.63.63-1.21,1.29-1.74,1.99Zm26.97,132.49l-24.53-21.73h-20.79v69.25c0,4.98-2.23,9.75-6.21,13.27-3.97,3.52-9.36,5.5-14.98,5.5s-11.01-1.98-14.98-5.5c-3.97-3.52-6.21-8.29-6.21-13.27v-3.8l-12.06,10.64c-2.99,2.61-6.34,4.88-9.97,6.76,3.38,8.33,9.74,15.44,18.12,20.26,8.38,4.82,18.3,7.07,28.26,6.42,9.96-.65,19.4-4.17,26.89-10.03,7.49-5.86,12.6-13.72,14.57-22.4.02-.28.02-.56,0-.84v-1.94c.03-.19.03-.38,0-.57.02-.25.02-.5,0-.75v.02q0-.62,0-1.25h0c.03-.24.03-.48,0-.71v-49.33h21.88Zm-107.82,53.08l2.04-1.55,1.2-1.02,38.09-33.92,14.95,13.25v-30.91l-7.88-7.02-6.83-6.05-21.19,18.72-34.25,30.34-1.6,1.28-1.69,1.1h-.25l-1.6.84-1.15.49h-1.15l-1.2.4h-1l-1,.22h-3.79c-3.98-.11-7.84-1.22-11.14-3.19-3.3-1.97-5.91-4.72-7.53-7.94-1.62-3.22-2.18-6.78-1.62-10.27.56-3.49,2.22-6.77,4.79-9.47l3.04-2.65h-17.15c-4.15-.01-8.28-.46-12.31-1.32-3.1,5.83-4.59,12.23-4.33,18.67.26,6.44,2.25,12.73,5.81,18.35,3.56,5.62,8.59,10.4,14.66,13.95,6.07,3.55,13.01,5.76,20.24,6.44h2.04c2.11.13,4.22.13,6.33,0h6.98l2.14-.49,2.14-.62,1.6-.53h.3l1.15-.44.7-.26,1.55-1.37.55-.27,1.2-.53h.4l1.5-.75h.25l1.49-.84.75-.49,1.1-.66,1.64-1.5Zm-57.87-53.08h53.49v18.42l24.53-21.73v-18.42H57.81c-2.87.12-5.73-.27-8.42-1.16-2.69-.89-5.15-2.25-7.22-4-2.08-1.75-3.73-3.86-4.86-6.2-1.13-2.34-1.71-4.85-1.71-7.39s.58-5.06,1.71-7.39,2.78-4.44,4.86-6.2,4.53-3.11,7.22-4c2.69-.89,5.55-1.28,8.42-1.16h4.14l-11.96-10.73c-2.94-2.59-5.51-5.48-7.68-8.61-9.86,3.13-18.2,9.16-23.64,17.09-5.44,7.93-7.63,17.27-6.22,26.46,1.41,9.19,6.35,17.67,13.98,24.02,7.63,6.35,17.5,10.18,27.94,10.86l3.44.13Z"
 />
</svg>
