<svg xmlns="http://www.w3.org/2000/svg" viewBox="0 0 71.98 71.29">
 <path
  d="m70.89,45.16l-8.43-14.6c-.22-.39-.72-.52-1.11-.3h0l-12.16,7.02c-.39.22-.52.72-.3,1.1h0l6.37,11.03h-10.21v-5.36c0-.45-.36-.81-.81-.81-.23,0-.44.1-.6.26l-12.09,13.22c-.28.31-.28.78,0,1.09l12.09,13.22c.3.33.81.35,1.14.05.17-.15.26-.37.26-.6v-5.4h13.01c3.79,0,7.3-2.03,9.2-5.31l3.62-6.26c1.49-2.59,1.49-5.77,0-8.36h.02Zm-9.43-13.08l6.29,10.89c2.93,5.27-6.7,6.19-10.62,6.45l-6.42-11.12,10.76-6.21h-.01Zm8.03,20.63h0l-3.62,6.26c-1.61,2.78-4.58,4.5-7.8,4.5h-13.82c-.45,0-.81.36-.81.81v4.12l-10.18-11.13,10.18-11.13v4.09c0,.45.36.81.81.81,5.54-.38,22.13,1.8,25.41-4.75,1.03,2.03.97,4.45-.17,6.42Zm-9.07-38.76c-.26-.21-.62-.24-.91-.07l-4.68,2.7-6.51-11.27c-1.89-3.28-5.4-5.31-9.19-5.31h-7.23c-2.99,0-5.75,1.59-7.24,4.18l-8.43,14.6c-.22.39-.09.88.3,1.11l12.16,7.02c.39.22.88.09,1.11-.3l6.37-11.03,5.1,8.84-4.64,2.68c-.39.23-.51.73-.28,1.12.11.19.3.32.51.37.36.04,17.29,3.86,17.66,3.88.35,0,.66-.23.77-.57l5.4-17.07c.1-.32,0-.67-.26-.88h-.01Zm-31.63,11.15l-10.76-6.21,6.29-10.89c3.06-5.18,8.74,2.72,10.9,5.98l-6.42,11.12h-.01Zm25.17,5.61l-14.73-3.25,3.54-2.04c.38-.23.52-.72.3-1.11-3.08-4.58-9.53-20.09-16.82-19.63,1.24-1.91,3.37-3.06,5.65-3.06h7.23c3.22,0,6.19,1.72,7.8,4.5l6.91,11.97c.22.39.72.52,1.11.3l3.57-2.06-4.55,14.38h-.01Zm-24.01,19.15c0-.45-.36-.81-.81-.81h-12.74l5.1-8.84,4.64,2.68c.39.22.88.09,1.11-.3.11-.2.14-.43.07-.65l-5.4-17.07c-.13-.4-.54-.64-.95-.55l-17.49,3.86c-.44.1-.71.53-.62.96.05.22.19.41.39.53l4.68,2.7-6.51,11.27c-1.89,3.29-1.89,7.34,0,10.62l3.61,6.26c1.49,2.58,4.25,4.18,7.23,4.18h16.87c.45,0,.81-.36.81-.81v-14.04h.01Zm-18.31,12.81c.09.15.18.29.28.43-2.28-.12-4.34-1.39-5.48-3.36l-3.61-6.26c-1.61-2.79-1.61-6.22,0-9l6.91-11.97c.22-.39.09-.88-.3-1.11h0l-3.57-2.06,14.73-3.25,4.55,14.38-3.54-2.04c-.39-.22-.88-.09-1.11.3h0c-2.56,5.2-12.03,17.41-8.87,23.96v-.02Zm4.13.44c-6.03-.1-2.01-8.9-.27-12.43h12.84v12.42h-12.57,0Z"
 />
</svg>
