<svg xmlns="http://www.w3.org/2000/svg" viewBox="0 0 23.76 23.7">
 <path
  d="m23.3,11.22l-3.41-.97c-1.53-.43-2.93-1.25-4.06-2.38-1.13-1.13-1.95-2.53-2.38-4.06l-.97-3.41c-.05-.12-.13-.22-.24-.29-.11-.07-.23-.11-.36-.11s-.25.04-.36.11c-.11.07-.19.17-.24.29l-.97,3.41c-.43,1.53-1.25,2.93-2.38,4.06s-2.53,1.95-4.06,2.38l-3.41.97c-.13.04-.25.12-.33.22-.08.11-.13.24-.13.38s.04.27.13.38c.08.11.2.19.33.22l3.41.97c1.53.43,2.93,1.25,4.06,2.38s1.95,2.53,2.38,4.06l.97,3.41c.04.13.12.25.22.33.11.08.24.13.38.13s.27-.04.38-.13c.11-.08.19-.2.22-.33l.97-3.41c.43-1.53,1.25-2.93,2.38-4.06,1.13-1.13,2.53-1.95,4.06-2.38l3.41-.97c.13-.04.25-.12.33-.22.08-.11.13-.24.13-.38s-.04-.27-.13-.38c-.08-.11-.2-.19-.33-.22Z"
 />
</svg>
