<svg xmlns="http://www.w3.org/2000/svg" viewBox="0 0 41.89 42">
 <path
  d="m20.9,42c3.62,0,7.17-.93,10.32-2.71,3.15-1.78,5.79-4.34,7.66-7.44s2.91-6.62,3.01-10.24c.11-3.62-.73-7.2-2.41-10.4-.09-.17-.25-.3-.44-.36-.19-.06-.39-.04-.57.06-.17.09-.31.25-.36.44-.06.19-.04.39.05.57,1.48,2.8,2.25,5.92,2.24,9.08-1.07,25.87-37.93,25.87-39,0C1.22,6.54,17.3-3.15,29.98,3.75c.18.09.38.11.57.05s.35-.19.44-.37.11-.38.05-.57c-.06-.19-.19-.35-.37-.44-3-1.59-6.36-2.42-9.77-2.42-27.86,1.15-27.86,40.85,0,42Zm0-27c.65,0,1.29.11,1.91.32.19.06.39.05.57-.03.18-.09.32-.24.38-.43.33-1.33-2.01-1.27-2.86-1.35-9.95.41-9.95,14.59,0,15,1.99,0,3.89-.79,5.3-2.2,1.41-1.41,2.2-3.31,2.2-5.3-.08-.87-.03-3.18-1.35-2.85-.09.03-.18.08-.25.15s-.13.14-.18.23c-.04.09-.07.18-.07.28s0,.2.04.29c.21.61.31,1.25.31,1.9-.3,7.95-11.7,7.95-12,0,0-1.59.63-3.12,1.76-4.24,1.12-1.12,2.65-1.76,4.24-1.76h0Zm7.18-5.46c.05-.09.08-.18.09-.28.01-.1,0-.2-.02-.29-.03-.09-.07-.18-.13-.26s-.14-.14-.22-.19c-2.11-1.17-4.48-1.78-6.89-1.78-18.9.78-18.9,27.72,0,28.5,2.48,0,4.92-.64,7.07-1.87s3.95-3,5.21-5.13c1.26-2.14,1.94-4.56,1.97-7.04.03-2.48-.58-4.92-1.78-7.09-.05-.09-.11-.16-.19-.22-.08-.06-.17-.11-.26-.13-.09-.03-.19-.04-.29-.02-.1.01-.19.04-.28.09s-.16.11-.22.19-.11.17-.13.26c-.03.1-.03.19-.02.29s.04.19.09.28c4.75,8.24-1.63,19.08-11.16,18.91-3.38,0-6.62-1.35-9.01-3.74-2.39-2.39-3.73-5.63-3.74-9.01-.16-9.52,10.67-15.91,18.91-11.16.09.05.18.08.28.09s.2,0,.29-.02c.09-.03.18-.07.26-.13s.14-.14.19-.22l-.02-.03Zm1.46-2.13l.28,3.6-9.45,9.45c-.14.14-.21.33-.21.53s.08.38.22.52c.14.14.33.22.52.22.2,0,.39-.07.53-.21l9.45-9.45,3.6.28c.11,0,.22,0,.32-.04s.19-.1.27-.17l5.46-5.46c.1-.1.17-.23.2-.37.03-.14.02-.28-.03-.42s-.14-.25-.25-.34-.25-.14-.39-.15l-3.3-.25-.25-3.3c0-.14-.07-.28-.15-.39-.09-.11-.2-.2-.34-.25-.13-.05-.28-.06-.42-.03s-.27.1-.37.2l-5.46,5.46c-.08.08-.14.17-.17.27-.04.1-.05.21-.04.32l-.02-.02Zm5.58-3.83c.3,3.49-.29,2.88,3.18,3.18l-4.06,4.06-2.96-.23-.23-2.96,4.06-4.06h0Z"
 />
</svg>
