<svg xmlns="http://www.w3.org/2000/svg" viewBox="0 0 14.84 14.84">
 <path
  d="m7.42,0C3.33,0,0,3.33,0,7.42s3.33,7.42,7.42,7.42,7.42-3.33,7.42-7.42S11.51,0,7.42,0Zm5.76,8.71c-.7.23-1.42.41-2.14.55.11-1.23.11-2.46,0-3.69.72.15,1.44.32,2.14.55h0c.09.41.15.84.15,1.29s-.05.87-.15,1.29h0Zm-11.53,0c-.09-.42-.15-.85-.15-1.29s.05-.87.15-1.29h0c.7-.23,1.42-.41,2.14-.55-.11,1.23-.11,2.46,0,3.69-.72-.15-1.44-.32-2.14-.55h0Zm3.68-3.38c1.39-.16,2.79-.16,4.17,0,.16,1.39.16,2.79,0,4.17-1.39.16-2.79.16-4.17,0-.16-1.39-.16-2.79,0-4.17Zm7.15-.97c-.54-.14-1.09-.27-1.65-.36-.1-.55-.22-1.1-.36-1.65.82.5,1.51,1.19,2.01,2.01Zm-3.77-2.72h0c.23.7.41,1.42.55,2.14-1.23-.11-2.46-.11-3.69,0,.15-.72.32-1.44.55-2.14h0c.42-.09.85-.15,1.29-.15s.87.05,1.29.15h.01Zm-4.34.71c-.14.54-.26,1.09-.36,1.64-.55.1-1.1.22-1.65.36.5-.82,1.18-1.51,2-2h.01Zm-2,8.11c.54.14,1.09.26,1.64.36.1.55.21,1.1.36,1.64-.82-.5-1.5-1.18-2-2Zm3.77,2.71h0c-.23-.7-.41-1.42-.55-2.14.61.06,1.23.1,1.84.1s1.23-.04,1.84-.1c-.15.72-.32,1.44-.55,2.14h0c-.42.09-.85.15-1.29.15s-.87-.05-1.29-.15Zm4.34-.71c.14-.54.27-1.09.36-1.65.55-.1,1.1-.21,1.64-.36-.5.82-1.19,1.51-2.01,2h.01Z"
 />
</svg>
