<svg xmlns="http://www.w3.org/2000/svg" viewBox="0 0 12.8 10.4">
 <path
  d="m12.78,1.23c-.48.21-.98.35-1.5.42.54-.32.96-.83,1.15-1.46-.51.3-1.07.51-1.66.64-.48-.51-1.17-.83-1.92-.83-1.46,0-2.62,1.18-2.62,2.62,0,.21.02.4.06.59-2.18-.1-4.1-1.15-5.39-2.74-.93,1.66.11,3.04.8,3.5-.42,0-.83-.13-1.18-.32,0,1.3.91,2.37,2.1,2.61-.26.08-.83.13-1.18.05.34,1.04,1.31,1.81,2.45,1.82-.9.7-2.21,1.26-3.89,1.09,1.17.75,2.54,1.18,4.03,1.18,4.83,0,7.46-4,7.46-7.46,0-.11,0-.22-.02-.34.54-.4.99-.86,1.33-1.39,0,0-.02.02-.02.02Z"
 />
</svg>
