<svg xmlns="http://www.w3.org/2000/svg" viewBox="0 0 31.19 32.01">
 <path
  d="m22.21,5.89l.32-4.31-3.15,2.93.79,2.01s2.04-.63,2.04-.63Zm-5.28,18.32c4.53-.73,7.61-5.01,6.88-9.54-.74-4.53-5.01-7.61-9.54-6.88-4.53.74-7.61,5.01-6.88,9.54.74,4.53,5.01,7.61,9.54,6.88ZM11.03,6.52l.79-2-3.16-2.93.32,4.3s2.05.63,2.05.63Zm6.96-.42L15.6,0l-2.4,6.1c.77-.19,1.57-.29,2.4-.29s1.63.1,2.4.29h-.01Zm13.2,13.46l-5.41-3.69v.13c0,1.63-.39,3.17-1.07,4.54l6.48-.98Zm-6.37-7.86l3.28-5.68-6.27,1.93c1.27.99,2.3,2.27,2.99,3.75Zm1.03,1.96l1.77,1.2,3.57-2.44-4.25-.64-1.08,1.87h-.01Zm-11.83,14.34l1.58,4.02,1.57-4.01-1.58-1.47-1.57,1.46Zm-5.37,2.43l4.8-4.46c-1.61-.35-3.08-1.07-4.32-2.08l-.49,6.54h0Zm9.08-4.46l4.8,4.46-.49-6.54c-1.23,1.01-2.7,1.74-4.32,2.08h.01Zm6.09-3.4l.16,2.13,4.13,1.27-2.15-3.73-2.13.32h-.01ZM9.36,7.96l-6.27-1.93,3.28,5.68c.69-1.47,1.72-2.76,2.99-3.75Zm-4.02,5.7l-1.07-1.86L0,12.44l3.56,2.43,1.78-1.21h0Zm-2.24,12.32l4.12-1.27.16-2.15-2.12-.32-2.15,3.74h0Zm2.32-9.98v-.13l-5.42,3.69,6.48.98c-.68-1.37-1.07-2.91-1.07-4.54h0Z"
 />
</svg>
